<svg id="visual" viewBox="0 0 900 450" width="900" height="450" xmlns="http://www.w3.org/2000/svg" xmlns:xlink="http://www.w3.org/1999/xlink" version="1.1"><rect x="0" y="0" width="900" height="450" fill="#FFFFFF"></rect><defs><linearGradient id="grad1_0" x1="50%" y1="100%" x2="100%" y2="0%"><stop offset="10%" stop-color="#002f63" stop-opacity="1"></stop><stop offset="90%" stop-color="#002f63" stop-opacity="1"></stop></linearGradient></defs><defs><linearGradient id="grad1_1" x1="50%" y1="100%" x2="100%" y2="0%"><stop offset="10%" stop-color="#002f63" stop-opacity="1"></stop><stop offset="90%" stop-color="#616d95" stop-opacity="1"></stop></linearGradient></defs><defs><linearGradient id="grad1_2" x1="50%" y1="100%" x2="100%" y2="0%"><stop offset="10%" stop-color="#afb3c9" stop-opacity="1"></stop><stop offset="90%" stop-color="#616d95" stop-opacity="1"></stop></linearGradient></defs><defs><linearGradient id="grad1_3" x1="50%" y1="100%" x2="100%" y2="0%"><stop offset="10%" stop-color="#afb3c9" stop-opacity="1"></stop><stop offset="90%" stop-color="#ffffff" stop-opacity="1"></stop></linearGradient></defs><defs><linearGradient id="grad2_0" x1="0%" y1="100%" x2="50%" y2="0%"><stop offset="10%" stop-color="#002f63" stop-opacity="1"></stop><stop offset="90%" stop-color="#002f63" stop-opacity="1"></stop></linearGradient></defs><defs><linearGradient id="grad2_1" x1="0%" y1="100%" x2="50%" y2="0%"><stop offset="10%" stop-color="#616d95" stop-opacity="1"></stop><stop offset="90%" stop-color="#002f63" stop-opacity="1"></stop></linearGradient></defs><defs><linearGradient id="grad2_2" x1="0%" y1="100%" x2="50%" y2="0%"><stop offset="10%" stop-color="#616d95" stop-opacity="1"></stop><stop offset="90%" stop-color="#afb3c9" stop-opacity="1"></stop></linearGradient></defs><defs><linearGradient id="grad2_3" x1="0%" y1="100%" x2="50%" y2="0%"><stop offset="10%" stop-color="#ffffff" stop-opacity="1"></stop><stop offset="90%" stop-color="#afb3c9" stop-opacity="1"></stop></linearGradient></defs><g transform="translate(900, 450)"><path d="M-225 0C-224.1 -24.6 -223.1 -49.2 -212.1 -68.9C-201 -88.7 -179.9 -103.6 -163.4 -118.7C-147 -133.9 -135.3 -149.1 -121.1 -166.7C-106.9 -184.2 -90.1 -203.9 -69.5 -214C-48.9 -224.1 -24.5 -224.5 0 -225L0 0Z" fill="#d6d8e4"></path><path d="M-168.7 0C-168.1 -18.4 -167.4 -36.9 -159.1 -51.7C-150.8 -66.5 -134.9 -77.7 -122.6 -89C-110.2 -100.4 -101.5 -111.9 -90.8 -125C-80.2 -138.1 -67.6 -152.9 -52.1 -160.5C-36.7 -168.1 -18.3 -168.4 0 -168.7L0 0Z" fill="#888faf"></path><path d="M-112.5 0C-112 -12.3 -111.6 -24.6 -106 -34.5C-100.5 -44.3 -89.9 -51.8 -81.7 -59.4C-73.5 -66.9 -67.6 -74.6 -60.5 -83.3C-53.4 -92.1 -45.1 -101.9 -34.8 -107C-24.5 -112 -12.2 -112.3 0 -112.5L0 0Z" fill="#394d7c"></path><path d="M-56.2 0C-56 -6.1 -55.8 -12.3 -53 -17.2C-50.3 -22.2 -45 -25.9 -40.9 -29.7C-36.7 -33.5 -33.8 -37.3 -30.3 -41.7C-26.7 -46 -22.5 -51 -17.4 -53.5C-12.2 -56 -6.1 -56.1 0 -56.2L0 0Z" fill="#002f63"></path></g><g transform="translate(0, 0)"><path d="M225 0C224 24.4 223 48.9 214 69.5C205 90.2 187.9 107.1 173.9 126.4C160 145.7 149.1 167.3 131.7 181.2C114.3 195.1 90.4 201.3 67.4 207.3C44.3 213.3 22.2 219.2 0 225L0 0Z" fill="#d6d8e4"></path><path d="M168.8 0C168 18.3 167.3 36.6 160.5 52.1C153.7 67.6 140.9 80.3 130.5 94.8C120 109.2 111.8 125.5 98.7 135.9C85.7 146.4 67.8 151 50.5 155.5C33.3 160 16.6 164.4 0 168.8L0 0Z" fill="#888faf"></path><path d="M112.5 0C112 12.2 111.5 24.4 107 34.8C102.5 45.1 94 53.5 87 63.2C80 72.8 74.5 83.7 65.8 90.6C57.1 97.6 45.2 100.7 33.7 103.7C22.2 106.7 11.1 109.6 0 112.5L0 0Z" fill="#394d7c"></path><path d="M56.3 0C56 6.1 55.8 12.2 53.5 17.4C51.2 22.5 47 26.8 43.5 31.6C40 36.4 37.3 41.8 32.9 45.3C28.6 48.8 22.6 50.3 16.8 51.8C11.1 53.3 5.5 54.8 0 56.3L0 0Z" fill="#002f63"></path></g></svg>