<svg id="visual" viewBox="0 0 450 900" width="450" height="900" xmlns="http://www.w3.org/2000/svg" xmlns:xlink="http://www.w3.org/1999/xlink" version="1.1"><rect x="0" y="0" width="450" height="900" fill="#002f63"></rect><defs><linearGradient id="grad1_0" x1="0%" y1="0%" x2="100%" y2="100%"><stop offset="30%" stop-color="#558ac8" stop-opacity="1"></stop><stop offset="70%" stop-color="#558ac8" stop-opacity="1"></stop></linearGradient></defs><defs><linearGradient id="grad1_1" x1="0%" y1="0%" x2="100%" y2="100%"><stop offset="30%" stop-color="#558ac8" stop-opacity="1"></stop><stop offset="70%" stop-color="#487ab7" stop-opacity="1"></stop></linearGradient></defs><defs><linearGradient id="grad1_2" x1="0%" y1="0%" x2="100%" y2="100%"><stop offset="30%" stop-color="#3c6aa5" stop-opacity="1"></stop><stop offset="70%" stop-color="#487ab7" stop-opacity="1"></stop></linearGradient></defs><defs><linearGradient id="grad1_3" x1="0%" y1="0%" x2="100%" y2="100%"><stop offset="30%" stop-color="#3c6aa5" stop-opacity="1"></stop><stop offset="70%" stop-color="#2f5a94" stop-opacity="1"></stop></linearGradient></defs><defs><linearGradient id="grad1_4" x1="0%" y1="0%" x2="100%" y2="100%"><stop offset="30%" stop-color="#214b84" stop-opacity="1"></stop><stop offset="70%" stop-color="#2f5a94" stop-opacity="1"></stop></linearGradient></defs><defs><linearGradient id="grad1_5" x1="0%" y1="0%" x2="100%" y2="100%"><stop offset="30%" stop-color="#214b84" stop-opacity="1"></stop><stop offset="70%" stop-color="#133d73" stop-opacity="1"></stop></linearGradient></defs><defs><linearGradient id="grad1_6" x1="0%" y1="0%" x2="100%" y2="100%"><stop offset="30%" stop-color="#002f63" stop-opacity="1"></stop><stop offset="70%" stop-color="#133d73" stop-opacity="1"></stop></linearGradient></defs><defs><linearGradient id="grad2_0" x1="0%" y1="0%" x2="100%" y2="100%"><stop offset="30%" stop-color="#558ac8" stop-opacity="1"></stop><stop offset="70%" stop-color="#558ac8" stop-opacity="1"></stop></linearGradient></defs><defs><linearGradient id="grad2_1" x1="0%" y1="0%" x2="100%" y2="100%"><stop offset="30%" stop-color="#487ab7" stop-opacity="1"></stop><stop offset="70%" stop-color="#558ac8" stop-opacity="1"></stop></linearGradient></defs><defs><linearGradient id="grad2_2" x1="0%" y1="0%" x2="100%" y2="100%"><stop offset="30%" stop-color="#487ab7" stop-opacity="1"></stop><stop offset="70%" stop-color="#3c6aa5" stop-opacity="1"></stop></linearGradient></defs><defs><linearGradient id="grad2_3" x1="0%" y1="0%" x2="100%" y2="100%"><stop offset="30%" stop-color="#2f5a94" stop-opacity="1"></stop><stop offset="70%" stop-color="#3c6aa5" stop-opacity="1"></stop></linearGradient></defs><defs><linearGradient id="grad2_4" x1="0%" y1="0%" x2="100%" y2="100%"><stop offset="30%" stop-color="#2f5a94" stop-opacity="1"></stop><stop offset="70%" stop-color="#214b84" stop-opacity="1"></stop></linearGradient></defs><defs><linearGradient id="grad2_5" x1="0%" y1="0%" x2="100%" y2="100%"><stop offset="30%" stop-color="#133d73" stop-opacity="1"></stop><stop offset="70%" stop-color="#214b84" stop-opacity="1"></stop></linearGradient></defs><defs><linearGradient id="grad2_6" x1="0%" y1="0%" x2="100%" y2="100%"><stop offset="30%" stop-color="#133d73" stop-opacity="1"></stop><stop offset="70%" stop-color="#002f63" stop-opacity="1"></stop></linearGradient></defs><g transform="translate(450, 0)"><path d="M0 405C-58 402.4 -116 399.8 -153.1 369.6C-190.1 339.3 -206.3 281.4 -244.7 244.7C-283.1 207.9 -343.7 192.2 -374.2 155C-404.6 117.7 -404.8 58.9 -405 0L0 0Z" fill="#09366b"></path><path d="M0 347.1C-49.7 344.9 -99.4 342.7 -131.2 316.8C-163 290.8 -176.8 241.2 -209.7 209.7C-242.6 178.2 -294.6 164.8 -320.7 132.8C-346.8 100.9 -347 50.5 -347.1 0L0 0Z" fill="#1a447b"></path><path d="M0 289.3C-41.4 287.4 -82.9 285.6 -109.3 264C-135.8 242.4 -147.3 201 -174.8 174.8C-202.2 148.5 -245.5 137.3 -267.3 110.7C-289 84.1 -289.1 42 -289.3 0L0 0Z" fill="#28538c"></path><path d="M0 231.4C-33.1 229.9 -66.3 228.5 -87.5 211.2C-108.6 193.9 -117.9 160.8 -139.8 139.8C-161.7 118.8 -196.4 109.9 -213.8 88.6C-231.2 67.3 -231.3 33.6 -231.4 0L0 0Z" fill="#35629d"></path><path d="M0 173.6C-24.9 172.5 -49.7 171.3 -65.6 158.4C-81.5 145.4 -88.4 120.6 -104.9 104.9C-121.3 89.1 -147.3 82.4 -160.4 66.4C-173.4 50.5 -173.5 25.2 -173.6 0L0 0Z" fill="#4272ae"></path><path d="M0 115.7C-16.6 115 -33.1 114.2 -43.7 105.6C-54.3 96.9 -58.9 80.4 -69.9 69.9C-80.9 59.4 -98.2 54.9 -106.9 44.3C-115.6 33.6 -115.7 16.8 -115.7 0L0 0Z" fill="#4f82bf"></path><path d="M0 57.9C-8.3 57.5 -16.6 57.1 -21.9 52.8C-27.2 48.5 -29.5 40.2 -35 35C-40.4 29.7 -49.1 27.5 -53.5 22.1C-57.8 16.8 -57.8 8.4 -57.9 0L0 0Z" fill="#558ac8"></path></g><g transform="translate(0, 900)"><path d="M0 -405C49.3 -383.3 98.6 -361.5 139.3 -336.3C180 -311.1 212 -282.3 253.9 -253.9C295.7 -225.4 347.3 -197.2 374.2 -155C401 -112.7 403 -56.4 405 0L0 0Z" fill="#09366b"></path><path d="M0 -347.1C42.3 -328.5 84.5 -309.9 119.4 -288.3C154.3 -266.6 181.7 -242 217.6 -217.6C253.5 -193.2 297.7 -169.1 320.7 -132.8C343.7 -96.6 345.4 -48.3 347.1 0L0 0Z" fill="#1a447b"></path><path d="M0 -289.3C35.2 -273.8 70.4 -258.2 99.5 -240.2C128.6 -222.2 151.4 -201.6 181.3 -181.3C211.2 -161 248.1 -140.9 267.3 -110.7C286.4 -80.5 287.9 -40.3 289.3 0L0 0Z" fill="#28538c"></path><path d="M0 -231.4C28.2 -219 56.4 -206.6 79.6 -192.2C102.8 -177.7 121.1 -161.3 145.1 -145.1C169 -128.8 198.5 -112.7 213.8 -88.6C229.1 -64.4 230.3 -32.2 231.4 0L0 0Z" fill="#35629d"></path><path d="M0 -173.6C21.1 -164.3 42.3 -154.9 59.7 -144.1C77.1 -133.3 90.9 -121 108.8 -108.8C126.7 -96.6 148.9 -84.5 160.4 -66.4C171.9 -48.3 172.7 -24.2 173.6 0L0 0Z" fill="#4272ae"></path><path d="M0 -115.7C14.1 -109.5 28.2 -103.3 39.8 -96.1C51.4 -88.9 60.6 -80.7 72.5 -72.5C84.5 -64.4 99.2 -56.4 106.9 -44.3C114.6 -32.2 115.1 -16.1 115.7 0L0 0Z" fill="#4f82bf"></path><path d="M0 -57.9C7 -54.8 14.1 -51.6 19.9 -48C25.7 -44.4 30.3 -40.3 36.3 -36.3C42.2 -32.2 49.6 -28.2 53.5 -22.1C57.3 -16.1 57.6 -8.1 57.9 0L0 0Z" fill="#558ac8"></path></g></svg>