<svg xmlns="http://www.w3.org/2000/svg" xmlns:xlink="http://www.w3.org/1999/xlink" width="500" height="372.609" viewBox="0 0 500 372.609"><defs><clipPath id="a"><rect width="500" height="372.609" fill="none"/></clipPath><clipPath id="e"><rect width="136.484" height="114.431" transform="translate(238.395 23.916)" fill="none"/></clipPath><clipPath id="f"><rect width="60.947" height="60.947" transform="translate(279.791 46.978)" fill="none"/></clipPath><clipPath id="h"><rect width="394.136" height="51.486" transform="translate(49.753 296.484)" fill="none"/></clipPath><clipPath id="i"><rect width="35.967" height="11.123" transform="translate(56.111 303.167)" fill="none"/></clipPath><clipPath id="j"><rect width="35.967" height="11.123" transform="translate(93.777 303.167)" fill="none"/></clipPath><clipPath id="k"><rect width="35.967" height="11.123" transform="translate(182.467 320.117)" fill="none"/></clipPath><clipPath id="l"><rect width="35.967" height="11.123" transform="translate(249.353 301.814)" fill="none"/></clipPath><clipPath id="m"><rect width="35.967" height="11.123" transform="translate(269.12 315.303)" fill="none"/></clipPath><clipPath id="n"><rect width="35.967" height="11.123" transform="translate(400.46 333.485)" fill="none"/></clipPath><clipPath id="o"><rect width="35.967" height="11.123" transform="translate(361.887 333.668)" fill="none"/></clipPath><clipPath id="p"><rect width="35.967" height="11.123" transform="translate(379.871 320.117)" fill="none"/></clipPath><clipPath id="q"><rect width="35.967" height="11.123" transform="translate(74.095 315.303)" fill="none"/></clipPath><clipPath id="r"><rect width="35.968" height="11.123" transform="translate(167.046 333.485)" fill="none"/></clipPath><clipPath id="t"><rect width="397.978" height="10.659" transform="translate(47.923 289.155)" fill="none"/></clipPath><clipPath id="v"><rect width="2.875" height="14.004" transform="translate(139.132 344.171)" fill="none"/></clipPath><clipPath id="w"><rect width="2.875" height="14.004" transform="translate(217.856 344.171)" fill="none"/></clipPath><clipPath id="x"><rect width="13.361" height="110.105" transform="translate(241.023 248.114)" fill="none"/></clipPath><clipPath id="z"><rect width="43.426" height="4.865" transform="translate(229.152 355.742)" fill="none"/></clipPath><clipPath id="aa"><rect width="131.783" height="112.285" transform="translate(135.554 238.356)" fill="none"/></clipPath><clipPath id="ab"><rect width="45.017" height="32.44" transform="translate(178.825 274.935)" fill="none"/></clipPath><clipPath id="ac"><rect width="2.406" height="2.406" transform="translate(139.527 345.563)" fill="none"/></clipPath><clipPath id="ad"><rect width="2.406" height="2.406" transform="translate(214.001 345.563)" fill="none"/></clipPath><clipPath id="ae"><rect width="2.406" height="2.406" transform="translate(185.114 241.365)" fill="none"/></clipPath><clipPath id="af"><rect width="2.406" height="2.406" transform="translate(259.588 241.365)" fill="none"/></clipPath><clipPath id="ag"><rect width="2.875" height="14.004" transform="translate(270.475 344.171)" fill="none"/></clipPath><clipPath id="ah"><rect width="2.875" height="14.004" transform="translate(349.2 344.171)" fill="none"/></clipPath><clipPath id="ai"><rect width="13.362" height="110.105" transform="translate(372.366 248.114)" fill="none"/></clipPath><clipPath id="aj"><rect width="163.99" height="152.13" transform="translate(251.987 199.452)" fill="none"/></clipPath><clipPath id="ak"><rect width="138.788" height="107.23" transform="translate(271.51 199.446)" fill="none"/></clipPath><clipPath id="al"><rect width="80.593" height="51.809" transform="translate(291.768 299.773)" fill="none"/></clipPath><clipPath id="am"><rect width="43.426" height="4.865" transform="translate(364.551 355.742)" fill="none"/></clipPath><clipPath id="ao"><rect width="22.418" height="8.539" transform="translate(199.703 334.96)" fill="none"/></clipPath><clipPath id="ap"><rect width="33.702" height="21.988" transform="translate(214.001 342.377)" fill="none"/></clipPath><clipPath id="aq"><rect width="41.441" height="19.47" transform="translate(211.59 320.888)" fill="none"/></clipPath><clipPath id="ar"><rect width="37.96" height="2.02" transform="translate(213.89 340.358)" fill="none"/></clipPath><clipPath id="as"><rect width="18.131" height="5.152" transform="translate(227.396 326.817)" fill="none"/></clipPath><clipPath id="au"><rect width="99.74" height="150.151" transform="translate(120.003 110.758)" fill="none"/></clipPath><clipPath id="aw"><rect width="99.017" height="104.956" transform="translate(120.563 110.753)" fill="none"/></clipPath><clipPath id="ax"><rect width="58.711" height="50.71" transform="translate(159.78 210.199)" fill="none"/></clipPath><clipPath id="ay"><rect width="18.951" height="27.131" transform="translate(134.178 168.659)" fill="none"/></clipPath><clipPath id="az"><rect width="18.951" height="27.131" transform="translate(133.489 168.094)" fill="none"/></clipPath><clipPath id="ba"><rect width="9.044" height="13.682" transform="translate(160.384 340.451)" fill="none"/></clipPath><clipPath id="bb"><rect width="10.123" height="11.569" transform="translate(92.078 343.867)" fill="none"/></clipPath><clipPath id="bc"><rect width="86.521" height="163.452" transform="translate(90.917 188.054)" fill="none"/></clipPath><clipPath id="bd"><rect width="8.259" height="4.505" transform="translate(145.808 138.347)" fill="none"/></clipPath><clipPath id="be"><rect width="24.991" height="22.58" transform="translate(141.105 116.61)" fill="none"/></clipPath><clipPath id="bf"><rect width="25.598" height="16.943" transform="translate(143.551 110.816)" fill="none"/></clipPath><clipPath id="bg"><rect width="13.655" height="51.011" transform="translate(114.799 216.651)" fill="none"/></clipPath><clipPath id="bh"><rect width="13.738" height="3.147" transform="translate(157.663 349.379)" fill="none"/></clipPath><clipPath id="bi"><rect width="13.283" height="2.905" transform="translate(89.896 350.589)" fill="none"/></clipPath></defs><g clip-path="url(#a)"><rect width="500" height="0.25" transform="translate(0 327.446)" fill="#ebebeb"/><rect width="33.122" height="0.25" transform="translate(416.779 343.542)" fill="#ebebeb"/><rect width="8.693" height="0.25" transform="translate(322.527 346.255)" fill="#ebebeb"/><rect width="19.193" height="0.25" transform="translate(396.586 334.256)" fill="#ebebeb"/><rect width="43.193" height="0.25" transform="translate(52.459 335.936)" fill="#ebebeb"/><rect width="6.333" height="0.25" transform="translate(104.556 335.936)" fill="#ebebeb"/><rect width="93.676" height="0.249" transform="translate(131.471 340.159)" fill="#ebebeb"/><g clip-path="url(#a)"><path d="M237.014,282.847H43.915a5.714,5.714,0,0,1-5.708-5.708V5.708A5.715,5.715,0,0,1,43.915,0h193.1a5.715,5.715,0,0,1,5.707,5.708V277.139a5.714,5.714,0,0,1-5.707,5.708M43.915.25a5.464,5.464,0,0,0-5.458,5.458V277.139a5.464,5.464,0,0,0,5.458,5.458h193.1a5.464,5.464,0,0,0,5.457-5.458V5.708A5.464,5.464,0,0,0,237.014.25Z" fill="#ebebeb"/><path d="M453.311,282.847h-193.1a5.713,5.713,0,0,1-5.707-5.708V5.708A5.714,5.714,0,0,1,260.212,0h193.1a5.715,5.715,0,0,1,5.708,5.708V277.139a5.714,5.714,0,0,1-5.708,5.708M260.212.25a5.463,5.463,0,0,0-5.457,5.458V277.139a5.463,5.463,0,0,0,5.457,5.458h193.1a5.464,5.464,0,0,0,5.458-5.458V5.708A5.464,5.464,0,0,0,453.311.25Z" fill="#ebebeb"/><path d="M180.572,72.2a8.112,8.112,0,0,0-10.449-7.774,17.365,17.365,0,0,0,.182-2.493,17.177,17.177,0,0,0-20.357-16.894,15.024,15.024,0,0,0-27.861,7.6c-.084,0-.166-.012-.25-.012a13.848,13.848,0,0,0,0,27.7h50.856l-.01-.012a8.112,8.112,0,0,0,7.889-8.106" fill="#f0f0f0"/><path d="M385.479,155.213a8.112,8.112,0,0,0-10.449-7.774,17.178,17.178,0,0,0-20.175-19.387,15.024,15.024,0,0,0-27.861,7.6c-.084,0-.166-.013-.25-.013a13.848,13.848,0,0,0,0,27.7H377.6l-.01-.012a8.112,8.112,0,0,0,7.889-8.106" fill="#f0f0f0"/><path d="M130.944,218.3A8.112,8.112,0,0,0,120.5,210.53a17.178,17.178,0,0,0-20.175-19.387,15.024,15.024,0,0,0-27.861,7.6c-.084,0-.166-.013-.25-.013a13.848,13.848,0,0,0,0,27.7h50.856l-.01-.012a8.112,8.112,0,0,0,7.889-8.106" fill="#f0f0f0"/><path d="M437.569,224.886a8.112,8.112,0,0,0-10.449-7.774,17.178,17.178,0,0,0-20.175-19.387,15.024,15.024,0,0,0-27.861,7.6c-.084,0-.166-.013-.25-.013a13.848,13.848,0,0,0,0,27.7H429.69l-.01-.012a8.112,8.112,0,0,0,7.889-8.106" fill="#f0f0f0"/><path d="M269.983,175.709a5.468,5.468,0,0,0-7.041-5.239,11.576,11.576,0,0,0-13.595-13.064,10.125,10.125,0,0,0-18.775,5.118c-.056,0-.111-.008-.168-.008a9.331,9.331,0,1,0,0,18.663h34.27l-.007-.007a5.468,5.468,0,0,0,5.316-5.463" fill="#f0f0f0"/><path d="M423.916,72.122a5.468,5.468,0,0,0-7.041-5.239,11.576,11.576,0,0,0-13.6-13.064,10.125,10.125,0,0,0-18.775,5.118c-.056,0-.111-.008-.168-.008a9.332,9.332,0,1,0,0,18.663h34.27l-.007-.007a5.468,5.468,0,0,0,5.316-5.463" fill="#f0f0f0"/><path d="M58.975,313.452V266.433h4.02v-22.4h5.877V166.136h8.5V156.085l18.139-8.46V137.491H98.02v28.645h3.518V244.03h3.517V203.073H114.6V181.966h2.664V244.03h7.252V220.411h4.774V214.38H140.35v-20.6H146.4V179.2h7.443V157.97H156.5V179.2h7.443v14.574H170v20.6h11.056v6.031h4.774V244.03h5.663V214.38h11.056V150.557h3.517v-7.035h23.62v7.035h5.025v46.234h20.1v4.523h7.538v3.518h-7.538v18.091H275.92v-60.3h4.523V149.8h9.8V104.323h2.764V149.8h7.036v12.814h41.247V158.4H343.8v28.645h3.517v.5h2.113v28.645h3.518v7.789h7.436V202.876h2.664V253.13h2.966V232.023h2.665v32.916H370.3V241.32h4.774v-6.031h11.056v-20.6h6.055V200.111h7.442V178.879h2.656v21.232h7.443v14.574h6.054v20.6h11.056v6.031h4.774v23.117h.857v.5h2.364v48.513Z" fill="#f5f5f5"/><rect width="2.848" height="2.848" transform="translate(315.426 165.436)" fill="#fafafa"/><rect width="2.848" height="2.848" transform="translate(315.426 170.21)" fill="#fafafa"/><rect width="2.848" height="2.848" transform="translate(315.426 189.307)" fill="#fafafa"/><rect width="2.848" height="2.848" transform="translate(315.426 194.081)" fill="#fafafa"/><rect width="2.848" height="2.848" transform="translate(315.426 198.855)" fill="#fafafa"/><rect width="2.848" height="2.848" transform="translate(315.426 213.178)" fill="#fafafa"/><rect width="2.848" height="2.848" transform="translate(315.426 217.952)" fill="#fafafa"/><rect width="2.848" height="2.848" transform="translate(310.903 184.532)" fill="#fafafa"/><rect width="2.848" height="2.848" transform="translate(310.903 189.307)" fill="#fafafa"/><rect width="2.848" height="2.848" transform="translate(310.903 194.081)" fill="#fafafa"/><rect width="2.848" height="2.848" transform="translate(310.903 198.855)" fill="#fafafa"/><rect width="2.848" height="2.848" transform="translate(310.903 203.629)" fill="#fafafa"/><rect width="2.848" height="2.848" transform="translate(310.903 213.178)" fill="#fafafa"/><rect width="2.848" height="2.848" transform="translate(310.903 217.952)" fill="#fafafa"/><rect width="2.848" height="2.848" transform="translate(306.381 165.436)" fill="#fafafa"/><rect width="2.848" height="2.848" transform="translate(306.381 170.21)" fill="#fafafa"/><rect width="2.848" height="2.848" transform="translate(306.381 174.984)" fill="#fafafa"/><rect width="2.848" height="2.848" transform="translate(306.381 179.758)" fill="#fafafa"/><rect width="2.848" height="2.848" transform="translate(306.381 184.532)" fill="#fafafa"/><rect width="2.848" height="2.848" transform="translate(306.381 189.307)" fill="#fafafa"/><rect width="2.848" height="2.848" transform="translate(306.381 194.081)" fill="#fafafa"/><rect width="2.848" height="2.848" transform="translate(306.381 198.855)" fill="#fafafa"/><rect width="2.848" height="2.848" transform="translate(306.381 203.629)" fill="#fafafa"/><rect width="2.848" height="2.848" transform="translate(306.381 208.403)" fill="#fafafa"/><rect width="2.848" height="2.848" transform="translate(306.381 217.952)" fill="#fafafa"/><rect width="2.848" height="2.848" transform="translate(301.858 165.436)" fill="#fafafa"/><rect width="2.848" height="2.848" transform="translate(301.858 170.21)" fill="#fafafa"/><rect width="2.848" height="2.848" transform="translate(301.858 174.984)" fill="#fafafa"/><rect width="2.848" height="2.848" transform="translate(301.858 179.758)" fill="#fafafa"/><rect width="2.848" height="2.848" transform="translate(301.858 184.532)" fill="#fafafa"/><rect width="2.848" height="2.848" transform="translate(301.858 189.307)" fill="#fafafa"/><rect width="2.848" height="2.848" transform="translate(301.858 194.081)" fill="#fafafa"/><rect width="2.848" height="2.848" transform="translate(301.858 237.048)" fill="#fafafa"/><rect width="2.848" height="2.848" transform="translate(297.335 165.436)" fill="#fafafa"/><rect width="2.848" height="2.848" transform="translate(297.335 170.21)" fill="#fafafa"/><rect width="2.848" height="2.848" transform="translate(297.335 174.984)" fill="#fafafa"/><rect width="2.848" height="2.848" transform="translate(297.335 179.758)" fill="#fafafa"/><rect width="2.848" height="2.848" transform="translate(297.335 184.532)" fill="#fafafa"/><rect width="2.848" height="2.848" transform="translate(297.335 189.307)" fill="#fafafa"/><rect width="2.848" height="2.848" transform="translate(297.335 194.081)" fill="#fafafa"/><rect width="2.848" height="2.848" transform="translate(297.335 198.855)" fill="#fafafa"/><rect width="2.848" height="2.848" transform="translate(297.335 227.5)" fill="#fafafa"/><rect width="2.848" height="2.848" transform="translate(297.335 232.274)" fill="#fafafa"/><rect width="2.848" height="2.848" transform="translate(297.335 237.048)" fill="#fafafa"/><rect width="2.848" height="2.848" transform="translate(297.335 241.822)" fill="#fafafa"/><rect width="2.848" height="2.848" transform="translate(297.335 260.919)" fill="#fafafa"/><rect width="2.848" height="2.848" transform="translate(292.812 165.436)" fill="#fafafa"/><rect width="2.848" height="2.848" transform="translate(292.812 170.21)" fill="#fafafa"/><rect width="2.848" height="2.848" transform="translate(292.812 174.984)" fill="#fafafa"/><rect width="2.848" height="2.848" transform="translate(292.812 179.758)" fill="#fafafa"/><rect width="2.848" height="2.848" transform="translate(292.812 184.532)" fill="#fafafa"/><rect width="2.848" height="2.848" transform="translate(292.812 189.307)" fill="#fafafa"/><rect width="2.848" height="2.848" transform="translate(292.812 194.081)" fill="#fafafa"/><rect width="2.848" height="2.848" transform="translate(292.812 198.855)" fill="#fafafa"/><rect width="2.848" height="2.848" transform="translate(292.812 203.629)" fill="#fafafa"/><rect width="2.848" height="2.848" transform="translate(292.812 208.403)" fill="#fafafa"/><rect width="2.848" height="2.848" transform="translate(292.812 222.726)" fill="#fafafa"/><rect width="2.848" height="2.848" transform="translate(292.812 227.5)" fill="#fafafa"/><rect width="2.848" height="2.848" transform="translate(292.812 232.274)" fill="#fafafa"/><rect width="2.848" height="2.848" transform="translate(292.812 237.048)" fill="#fafafa"/><rect width="2.848" height="2.848" transform="translate(292.812 241.822)" fill="#fafafa"/><rect width="2.848" height="2.848" transform="translate(292.812 260.919)" fill="#fafafa"/><rect width="2.848" height="2.848" transform="translate(288.289 165.436)" fill="#fafafa"/><rect width="2.848" height="2.848" transform="translate(288.289 170.21)" fill="#fafafa"/><rect width="2.848" height="2.848" transform="translate(288.289 174.984)" fill="#fafafa"/><rect width="2.848" height="2.848" transform="translate(288.289 179.758)" fill="#fafafa"/><rect width="2.848" height="2.848" transform="translate(288.289 184.532)" fill="#fafafa"/><rect width="2.848" height="2.848" transform="translate(288.289 189.307)" fill="#fafafa"/><rect width="2.848" height="2.848" transform="translate(288.289 194.081)" fill="#fafafa"/><rect width="2.848" height="2.848" transform="translate(288.289 198.855)" fill="#fafafa"/><rect width="2.848" height="2.848" transform="translate(288.289 203.629)" fill="#fafafa"/><rect width="2.848" height="2.848" transform="translate(288.289 208.403)" fill="#fafafa"/><rect width="2.848" height="2.848" transform="translate(288.289 213.178)" fill="#fafafa"/><rect width="2.848" height="2.848" transform="translate(288.289 217.952)" fill="#fafafa"/><rect width="2.848" height="2.848" transform="translate(288.289 222.726)" fill="#fafafa"/><rect width="2.848" height="2.848" transform="translate(288.289 227.5)" fill="#fafafa"/><rect width="2.848" height="2.848" transform="translate(288.289 232.274)" fill="#fafafa"/><rect width="2.848" height="2.848" transform="translate(288.289 237.048)" fill="#fafafa"/><rect width="2.848" height="2.848" transform="translate(288.289 241.822)" fill="#fafafa"/><rect width="2.848" height="2.848" transform="translate(288.289 246.597)" fill="#fafafa"/><rect width="2.848" height="2.848" transform="translate(283.766 165.436)" fill="#fafafa"/><rect width="2.848" height="2.848" transform="translate(283.766 170.21)" fill="#fafafa"/><rect width="2.848" height="2.848" transform="translate(283.766 174.984)" fill="#fafafa"/><rect width="2.848" height="2.848" transform="translate(283.766 179.758)" fill="#fafafa"/><rect width="2.848" height="2.848" transform="translate(283.766 184.532)" fill="#fafafa"/><rect width="2.848" height="2.848" transform="translate(283.766 189.307)" fill="#fafafa"/><rect width="2.848" height="2.848" transform="translate(283.766 194.081)" fill="#fafafa"/><rect width="2.848" height="2.848" transform="translate(283.766 198.855)" fill="#fafafa"/><rect width="2.848" height="2.848" transform="translate(283.766 203.629)" fill="#fafafa"/><rect width="2.848" height="2.848" transform="translate(283.766 208.403)" fill="#fafafa"/><rect width="2.848" height="2.848" transform="translate(283.766 222.726)" fill="#fafafa"/><rect width="2.848" height="2.848" transform="translate(283.766 227.5)" fill="#fafafa"/><rect width="2.848" height="2.848" transform="translate(283.766 232.274)" fill="#fafafa"/><rect width="2.848" height="2.848" transform="translate(283.766 237.048)" fill="#fafafa"/><rect width="2.848" height="2.848" transform="translate(279.243 165.436)" fill="#fafafa"/><rect width="2.848" height="2.848" transform="translate(279.243 170.21)" fill="#fafafa"/><rect width="2.848" height="2.848" transform="translate(279.243 174.984)" fill="#fafafa"/><rect width="2.848" height="2.848" transform="translate(279.243 179.758)" fill="#fafafa"/><rect width="2.848" height="2.848" transform="translate(279.243 184.532)" fill="#fafafa"/><rect width="2.848" height="2.848" transform="translate(279.243 189.307)" fill="#fafafa"/><rect width="2.848" height="2.848" transform="translate(279.243 194.081)" fill="#fafafa"/><rect width="2.848" height="2.848" transform="translate(279.243 198.855)" fill="#fafafa"/><rect width="2.848" height="2.848" transform="translate(279.243 203.629)" fill="#fafafa"/><rect width="2.848" height="2.848" transform="translate(279.243 208.403)" fill="#fafafa"/><rect width="2.848" height="2.848" transform="translate(279.243 222.726)" fill="#fafafa"/><rect width="2.848" height="2.848" transform="translate(279.243 227.5)" fill="#fafafa"/><rect width="2.848" height="2.848" transform="translate(279.243 232.274)" fill="#fafafa"/><rect width="2.848" height="2.848" transform="translate(228.319 153.04)" fill="#fafafa"/><rect width="2.848" height="2.848" transform="translate(228.319 157.814)" fill="#fafafa"/><rect width="2.848" height="2.848" transform="translate(228.319 162.588)" fill="#fafafa"/><rect width="2.848" height="2.848" transform="translate(228.319 167.362)" fill="#fafafa"/><rect width="2.848" height="2.848" transform="translate(228.319 172.136)" fill="#fafafa"/><rect width="2.848" height="2.848" transform="translate(228.319 176.911)" fill="#fafafa"/><rect width="2.848" height="2.848" transform="translate(228.319 181.685)" fill="#fafafa"/><rect width="2.848" height="2.848" transform="translate(228.319 186.459)" fill="#fafafa"/><rect width="2.848" height="2.848" transform="translate(228.319 200.781)" fill="#fafafa"/><rect width="2.848" height="2.848" transform="translate(228.319 205.555)" fill="#fafafa"/><rect width="2.848" height="2.848" transform="translate(223.796 153.04)" fill="#fafafa"/><rect width="2.848" height="2.848" transform="translate(223.796 157.814)" fill="#fafafa"/><rect width="2.848" height="2.848" transform="translate(223.796 162.588)" fill="#fafafa"/><rect width="2.848" height="2.848" transform="translate(223.796 167.362)" fill="#fafafa"/><rect width="2.848" height="2.848" transform="translate(223.796 172.136)" fill="#fafafa"/><rect width="2.848" height="2.848" transform="translate(223.796 176.911)" fill="#fafafa"/><rect width="2.848" height="2.848" transform="translate(223.796 181.685)" fill="#fafafa"/><rect width="2.848" height="2.848" transform="translate(223.796 186.459)" fill="#fafafa"/><rect width="2.848" height="2.848" transform="translate(223.796 205.555)" fill="#fafafa"/><rect width="2.848" height="2.848" transform="translate(219.273 153.04)" fill="#fafafa"/><rect width="2.848" height="2.848" transform="translate(219.273 157.814)" fill="#fafafa"/><rect width="2.848" height="2.848" transform="translate(219.273 162.588)" fill="#fafafa"/><rect width="2.848" height="2.848" transform="translate(219.273 167.362)" fill="#fafafa"/><rect width="2.848" height="2.848" transform="translate(219.273 172.136)" fill="#fafafa"/><rect width="2.848" height="2.848" transform="translate(219.273 176.911)" fill="#fafafa"/><rect width="2.848" height="2.848" transform="translate(219.273 181.685)" fill="#fafafa"/><rect width="2.848" height="2.848" transform="translate(219.273 186.459)" fill="#fafafa"/><rect width="2.848" height="2.848" transform="translate(214.75 153.04)" fill="#fafafa"/><rect width="2.848" height="2.848" transform="translate(214.75 157.814)" fill="#fafafa"/><rect width="2.848" height="2.848" transform="translate(214.75 162.588)" fill="#fafafa"/><rect width="2.848" height="2.848" transform="translate(214.75 167.362)" fill="#fafafa"/><rect width="2.848" height="2.848" transform="translate(214.75 172.136)" fill="#fafafa"/><rect width="2.848" height="2.848" transform="translate(214.75 176.911)" fill="#fafafa"/><rect width="2.848" height="2.848" transform="translate(214.75 186.459)" fill="#fafafa"/><rect width="2.848" height="2.848" transform="translate(214.75 191.233)" fill="#fafafa"/><rect width="2.848" height="2.848" transform="translate(214.75 205.555)" fill="#fafafa"/><rect width="2.848" height="2.848" transform="translate(214.75 210.33)" fill="#fafafa"/><rect width="2.848" height="2.848" transform="translate(214.75 215.104)" fill="#fafafa"/><rect width="2.848" height="2.848" transform="translate(214.75 219.878)" fill="#fafafa"/><rect width="2.848" height="2.848" transform="translate(214.75 224.652)" fill="#fafafa"/><rect width="2.848" height="2.848" transform="translate(214.75 229.426)" fill="#fafafa"/><rect width="2.848" height="2.848" transform="translate(214.75 234.2)" fill="#fafafa"/><rect width="2.848" height="2.848" transform="translate(210.228 153.04)" fill="#fafafa"/><rect width="2.848" height="2.848" transform="translate(210.228 157.814)" fill="#fafafa"/><rect width="2.848" height="2.848" transform="translate(210.228 162.588)" fill="#fafafa"/><rect width="2.848" height="2.848" transform="translate(210.228 167.362)" fill="#fafafa"/><rect width="2.848" height="2.848" transform="translate(210.228 172.136)" fill="#fafafa"/><rect width="2.848" height="2.848" transform="translate(210.228 176.911)" fill="#fafafa"/><rect width="2.848" height="2.848" transform="translate(210.228 191.233)" fill="#fafafa"/><rect width="2.848" height="2.848" transform="translate(210.228 196.007)" fill="#fafafa"/><rect width="2.848" height="2.848" transform="translate(210.228 200.781)" fill="#fafafa"/><rect width="2.848" height="2.848" transform="translate(210.228 205.555)" fill="#fafafa"/><rect width="2.848" height="2.848" transform="translate(210.228 210.33)" fill="#fafafa"/><rect width="2.848" height="2.848" transform="translate(210.228 215.104)" fill="#fafafa"/><rect width="2.848" height="2.848" transform="translate(210.228 219.878)" fill="#fafafa"/><rect width="2.848" height="2.848" transform="translate(210.228 224.652)" fill="#fafafa"/><rect width="2.848" height="2.848" transform="translate(210.228 229.426)" fill="#fafafa"/><rect width="2.848" height="2.848" transform="translate(210.228 234.2)" fill="#fafafa"/><rect width="2.848" height="2.848" transform="translate(210.228 238.975)" fill="#fafafa"/><rect width="2.848" height="2.848" transform="translate(210.228 248.523)" fill="#fafafa"/><rect width="2.848" height="2.848" transform="translate(205.705 153.04)" fill="#fafafa"/><rect width="2.848" height="2.848" transform="translate(205.705 157.814)" fill="#fafafa"/><rect width="2.848" height="2.848" transform="translate(205.705 162.588)" fill="#fafafa"/><rect width="2.848" height="2.848" transform="translate(205.705 167.362)" fill="#fafafa"/><rect width="2.848" height="2.848" transform="translate(205.705 172.136)" fill="#fafafa"/><rect width="2.848" height="2.848" transform="translate(205.705 176.911)" fill="#fafafa"/><rect width="2.848" height="2.848" transform="translate(205.705 191.233)" fill="#fafafa"/><rect width="2.848" height="2.848" transform="translate(205.705 196.007)" fill="#fafafa"/><rect width="2.848" height="2.848" transform="translate(205.705 200.781)" fill="#fafafa"/><rect width="2.848" height="2.848" transform="translate(205.705 205.555)" fill="#fafafa"/><rect width="2.848" height="2.848" transform="translate(205.705 219.878)" fill="#fafafa"/><rect width="2.848" height="2.848" transform="translate(205.705 224.652)" fill="#fafafa"/><rect width="2.848" height="2.848" transform="translate(205.705 229.426)" fill="#fafafa"/><rect width="2.848" height="2.848" transform="translate(205.705 234.2)" fill="#fafafa"/><rect width="2.848" height="2.848" transform="translate(205.705 238.975)" fill="#fafafa"/><rect width="2.848" height="2.848" transform="translate(205.705 248.523)" fill="#fafafa"/><rect width="2.848" height="2.848" transform="translate(205.705 253.297)" fill="#fafafa"/><rect width="2.848" height="2.848" transform="translate(164.663 197.431)" fill="#fafafa"/><rect width="2.848" height="2.848" transform="translate(164.663 202.205)" fill="#fafafa"/><rect width="2.848" height="2.848" transform="translate(164.663 206.979)" fill="#fafafa"/><rect width="2.848" height="2.848" transform="translate(164.663 211.754)" fill="#fafafa"/><rect width="2.848" height="2.848" transform="translate(164.663 216.528)" fill="#fafafa"/><rect width="2.848" height="2.848" transform="translate(164.663 221.302)" fill="#fafafa"/><rect width="2.848" height="2.848" transform="translate(164.663 226.076)" fill="#fafafa"/><rect width="2.848" height="2.848" transform="translate(164.663 240.399)" fill="#fafafa"/><rect width="2.848" height="2.848" transform="translate(164.663 245.173)" fill="#fafafa"/><rect width="2.848" height="2.848" transform="translate(164.663 249.947)" fill="#fafafa"/><rect width="2.848" height="2.848" transform="translate(160.14 197.431)" fill="#fafafa"/><rect width="2.848" height="2.848" transform="translate(160.14 202.205)" fill="#fafafa"/><rect width="2.848" height="2.848" transform="translate(160.14 206.979)" fill="#fafafa"/><rect width="2.848" height="2.848" transform="translate(160.14 211.754)" fill="#fafafa"/><rect width="2.848" height="2.848" transform="translate(160.14 216.528)" fill="#fafafa"/><rect width="2.848" height="2.848" transform="translate(160.14 221.302)" fill="#fafafa"/><rect width="2.848" height="2.848" transform="translate(160.14 226.076)" fill="#fafafa"/><rect width="2.848" height="2.848" transform="translate(155.618 197.431)" fill="#fafafa"/><rect width="2.848" height="2.848" transform="translate(155.618 202.205)" fill="#fafafa"/><rect width="2.848" height="2.848" transform="translate(155.618 206.979)" fill="#fafafa"/><rect width="2.848" height="2.848" transform="translate(155.618 211.754)" fill="#fafafa"/><rect width="2.848" height="2.848" transform="translate(155.618 216.528)" fill="#fafafa"/><rect width="2.848" height="2.848" transform="translate(155.618 221.302)" fill="#fafafa"/><rect width="2.848" height="2.848" transform="translate(155.618 226.076)" fill="#fafafa"/><rect width="2.848" height="2.848" transform="translate(151.095 197.431)" fill="#fafafa"/><rect width="2.848" height="2.848" transform="translate(151.095 202.205)" fill="#fafafa"/><rect width="2.848" height="2.848" transform="translate(151.095 206.979)" fill="#fafafa"/><rect width="2.848" height="2.848" transform="translate(151.095 211.754)" fill="#fafafa"/><rect width="2.848" height="2.848" transform="translate(151.095 216.528)" fill="#fafafa"/><rect width="2.848" height="2.848" transform="translate(151.095 221.302)" fill="#fafafa"/><rect width="2.848" height="2.848" transform="translate(151.095 226.076)" fill="#fafafa"/><rect width="2.848" height="2.848" transform="translate(151.095 230.85)" fill="#fafafa"/><rect width="2.848" height="2.848" transform="translate(151.095 235.624)" fill="#fafafa"/><rect width="2.848" height="2.848" transform="translate(151.095 240.399)" fill="#fafafa"/><rect width="2.848" height="2.848" transform="translate(151.095 245.173)" fill="#fafafa"/><rect width="2.848" height="2.848" transform="translate(146.572 197.431)" fill="#fafafa"/><rect width="2.848" height="2.848" transform="translate(146.572 202.205)" fill="#fafafa"/><rect width="2.848" height="2.848" transform="translate(146.572 206.979)" fill="#fafafa"/><rect width="2.848" height="2.848" transform="translate(146.572 211.754)" fill="#fafafa"/><rect width="2.848" height="2.848" transform="translate(146.572 216.528)" fill="#fafafa"/><rect width="2.848" height="2.848" transform="translate(146.572 221.302)" fill="#fafafa"/><rect width="2.848" height="2.848" transform="translate(146.572 226.076)" fill="#fafafa"/><rect width="2.848" height="2.848" transform="translate(146.572 230.85)" fill="#fafafa"/><rect width="2.848" height="2.848" transform="translate(146.572 235.624)" fill="#fafafa"/><rect width="2.848" height="2.848" transform="translate(146.572 240.399)" fill="#fafafa"/><rect width="2.848" height="2.848" transform="translate(146.572 245.173)" fill="#fafafa"/><rect width="2.848" height="2.848" transform="translate(146.572 249.947)" fill="#fafafa"/><rect width="2.848" height="2.848" transform="translate(146.572 264.269)" fill="#fafafa"/><rect width="2.848" height="2.848" transform="translate(146.572 269.044)" fill="#fafafa"/><rect width="2.848" height="2.848" transform="translate(142.049 197.431)" fill="#fafafa"/><rect width="2.848" height="2.848" transform="translate(142.049 202.205)" fill="#fafafa"/><rect width="2.848" height="2.848" transform="translate(142.049 206.979)" fill="#fafafa"/><rect width="2.848" height="2.848" transform="translate(142.049 221.302)" fill="#fafafa"/><rect width="2.848" height="2.848" transform="translate(142.049 226.076)" fill="#fafafa"/><rect width="2.848" height="2.848" transform="translate(142.049 230.85)" fill="#fafafa"/><rect width="2.848" height="2.848" transform="translate(142.049 235.624)" fill="#fafafa"/><rect width="2.848" height="2.848" transform="translate(142.049 240.399)" fill="#fafafa"/><rect width="2.848" height="2.848" transform="translate(142.049 245.173)" fill="#fafafa"/><rect width="2.848" height="2.848" transform="translate(142.049 249.947)" fill="#fafafa"/><rect width="2.848" height="2.848" transform="translate(142.049 264.269)" fill="#fafafa"/><rect width="2.848" height="2.848" transform="translate(142.049 269.044)" fill="#fafafa"/><rect width="2.848" height="2.848" transform="translate(142.049 273.818)" fill="#fafafa"/><rect width="2.848" height="2.848" transform="translate(94.643 168.786)" fill="#fafafa"/><rect width="2.848" height="2.848" transform="translate(94.643 173.56)" fill="#fafafa"/><rect width="2.848" height="2.848" transform="translate(94.643 178.334)" fill="#fafafa"/><rect width="2.848" height="2.848" transform="translate(94.643 183.109)" fill="#fafafa"/><rect width="2.848" height="2.848" transform="translate(94.643 187.883)" fill="#fafafa"/><rect width="2.848" height="2.848" transform="translate(94.643 192.657)" fill="#fafafa"/><rect width="2.848" height="2.848" transform="translate(94.643 197.431)" fill="#fafafa"/><rect width="2.848" height="2.848" transform="translate(94.643 202.205)" fill="#fafafa"/><rect width="2.848" height="2.848" transform="translate(94.643 206.979)" fill="#fafafa"/><rect width="2.848" height="2.848" transform="translate(94.643 211.754)" fill="#fafafa"/><rect width="2.848" height="2.848" transform="translate(94.643 216.528)" fill="#fafafa"/><rect width="2.848" height="2.848" transform="translate(94.643 221.302)" fill="#fafafa"/><rect width="2.848" height="2.848" transform="translate(94.643 226.076)" fill="#fafafa"/><rect width="2.848" height="2.848" transform="translate(94.643 230.85)" fill="#fafafa"/><rect width="2.848" height="2.848" transform="translate(94.643 235.624)" fill="#fafafa"/><rect width="2.848" height="2.848" transform="translate(94.643 240.399)" fill="#fafafa"/><rect width="2.848" height="2.848" transform="translate(94.643 245.173)" fill="#fafafa"/><rect width="2.848" height="2.848" transform="translate(94.643 249.947)" fill="#fafafa"/><rect width="2.848" height="2.848" transform="translate(94.643 254.721)" fill="#fafafa"/><rect width="2.848" height="2.848" transform="translate(94.643 259.495)" fill="#fafafa"/><rect width="2.848" height="2.848" transform="translate(94.643 264.269)" fill="#fafafa"/><rect width="2.848" height="2.848" transform="translate(94.643 269.044)" fill="#fafafa"/><rect width="2.848" height="2.848" transform="translate(94.643 273.818)" fill="#fafafa"/><rect width="2.848" height="2.848" transform="translate(90.12 168.786)" fill="#fafafa"/><rect width="2.848" height="2.848" transform="translate(90.12 173.56)" fill="#fafafa"/><rect width="2.848" height="2.848" transform="translate(90.12 178.334)" fill="#fafafa"/><rect width="2.848" height="2.848" transform="translate(90.12 183.109)" fill="#fafafa"/><rect width="2.848" height="2.848" transform="translate(90.12 187.883)" fill="#fafafa"/><rect width="2.848" height="2.848" transform="translate(90.12 192.657)" fill="#fafafa"/><rect width="2.848" height="2.848" transform="translate(90.12 197.431)" fill="#fafafa"/><rect width="2.848" height="2.848" transform="translate(90.12 202.205)" fill="#fafafa"/><rect width="2.848" height="2.848" transform="translate(90.12 206.979)" fill="#fafafa"/><rect width="2.848" height="2.848" transform="translate(90.12 211.754)" fill="#fafafa"/><rect width="2.848" height="2.848" transform="translate(90.12 216.528)" fill="#fafafa"/><rect width="2.848" height="2.848" transform="translate(90.12 221.302)" fill="#fafafa"/><rect width="2.848" height="2.848" transform="translate(90.12 226.076)" fill="#fafafa"/><rect width="2.848" height="2.848" transform="translate(90.12 230.85)" fill="#fafafa"/><rect width="2.848" height="2.848" transform="translate(90.12 235.624)" fill="#fafafa"/><rect width="2.848" height="2.848" transform="translate(90.12 240.399)" fill="#fafafa"/><rect width="2.848" height="2.848" transform="translate(90.12 245.173)" fill="#fafafa"/><rect width="2.848" height="2.848" transform="translate(90.12 249.947)" fill="#fafafa"/><rect width="2.848" height="2.848" transform="translate(90.12 254.721)" fill="#fafafa"/><rect width="2.848" height="2.848" transform="translate(85.597 168.786)" fill="#fafafa"/><rect width="2.848" height="2.848" transform="translate(85.597 173.56)" fill="#fafafa"/><rect width="2.848" height="2.848" transform="translate(85.597 178.334)" fill="#fafafa"/><rect width="2.848" height="2.848" transform="translate(85.597 183.109)" fill="#fafafa"/><rect width="2.848" height="2.848" transform="translate(85.597 187.883)" fill="#fafafa"/><rect width="2.848" height="2.848" transform="translate(85.597 192.657)" fill="#fafafa"/><rect width="2.848" height="2.848" transform="translate(85.597 197.431)" fill="#fafafa"/><rect width="2.848" height="2.848" transform="translate(85.597 202.205)" fill="#fafafa"/><rect width="2.848" height="2.848" transform="translate(85.597 206.979)" fill="#fafafa"/><rect width="2.848" height="2.848" transform="translate(85.597 211.754)" fill="#fafafa"/><rect width="2.848" height="2.848" transform="translate(85.597 216.528)" fill="#fafafa"/><rect width="2.848" height="2.848" transform="translate(85.597 221.302)" fill="#fafafa"/><rect width="2.848" height="2.848" transform="translate(85.597 226.076)" fill="#fafafa"/><rect width="2.848" height="2.848" transform="translate(85.597 230.85)" fill="#fafafa"/><rect width="2.848" height="2.848" transform="translate(85.597 235.624)" fill="#fafafa"/><rect width="2.848" height="2.848" transform="translate(85.597 240.399)" fill="#fafafa"/><rect width="2.848" height="2.848" transform="translate(85.597 245.173)" fill="#fafafa"/><rect width="2.848" height="2.848" transform="translate(85.597 249.947)" fill="#fafafa"/><rect width="2.848" height="2.848" transform="translate(85.597 254.721)" fill="#fafafa"/><rect width="2.848" height="2.848" transform="translate(81.074 168.786)" fill="#fafafa"/><rect width="2.848" height="2.848" transform="translate(81.074 173.56)" fill="#fafafa"/><rect width="2.848" height="2.848" transform="translate(81.074 178.334)" fill="#fafafa"/><rect width="2.848" height="2.848" transform="translate(81.074 183.109)" fill="#fafafa"/><rect width="2.848" height="2.848" transform="translate(81.074 187.883)" fill="#fafafa"/><rect width="2.848" height="2.848" transform="translate(81.074 192.657)" fill="#fafafa"/><rect width="2.848" height="2.848" transform="translate(81.074 197.431)" fill="#fafafa"/><rect width="2.848" height="2.848" transform="translate(81.074 202.205)" fill="#fafafa"/><rect width="2.848" height="2.848" transform="translate(81.074 206.979)" fill="#fafafa"/><rect width="2.848" height="2.848" transform="translate(81.074 211.754)" fill="#fafafa"/><rect width="2.848" height="2.848" transform="translate(81.074 216.528)" fill="#fafafa"/><rect width="2.848" height="2.848" transform="translate(81.074 221.302)" fill="#fafafa"/><rect width="2.848" height="2.848" transform="translate(81.074 226.076)" fill="#fafafa"/><rect width="2.848" height="2.848" transform="translate(81.074 230.85)" fill="#fafafa"/><rect width="2.848" height="2.848" transform="translate(81.074 235.624)" fill="#fafafa"/><rect width="2.848" height="2.848" transform="translate(76.551 168.786)" fill="#fafafa"/><rect width="2.848" height="2.848" transform="translate(76.551 173.56)" fill="#fafafa"/><rect width="2.848" height="2.848" transform="translate(76.551 178.334)" fill="#fafafa"/><rect width="2.848" height="2.848" transform="translate(76.551 183.109)" fill="#fafafa"/><rect width="2.848" height="2.848" transform="translate(76.551 187.883)" fill="#fafafa"/><rect width="2.848" height="2.848" transform="translate(76.551 192.657)" fill="#fafafa"/><rect width="2.848" height="2.848" transform="translate(76.551 197.431)" fill="#fafafa"/><rect width="2.848" height="2.848" transform="translate(76.551 202.205)" fill="#fafafa"/><rect width="2.848" height="2.848" transform="translate(76.551 206.979)" fill="#fafafa"/><rect width="2.848" height="2.848" transform="translate(76.551 211.754)" fill="#fafafa"/><rect width="2.848" height="2.848" transform="translate(76.551 216.528)" fill="#fafafa"/><rect width="2.848" height="2.848" transform="translate(76.551 221.302)" fill="#fafafa"/><rect width="2.848" height="2.848" transform="translate(76.551 226.076)" fill="#fafafa"/><rect width="2.848" height="2.848" transform="translate(72.028 168.786)" fill="#fafafa"/><rect width="2.848" height="2.848" transform="translate(72.028 173.56)" fill="#fafafa"/><rect width="2.848" height="2.848" transform="translate(72.028 178.334)" fill="#fafafa"/><rect width="2.848" height="2.848" transform="translate(72.028 183.109)" fill="#fafafa"/><rect width="2.848" height="2.848" transform="translate(72.028 187.883)" fill="#fafafa"/><rect width="2.848" height="2.848" transform="translate(72.028 192.657)" fill="#fafafa"/><rect width="2.848" height="2.848" transform="translate(72.028 197.431)" fill="#fafafa"/><rect width="2.848" height="2.848" transform="translate(72.028 202.205)" fill="#fafafa"/><rect width="2.848" height="2.848" transform="translate(72.028 206.979)" fill="#fafafa"/><rect width="2.848" height="2.848" transform="translate(72.028 211.754)" fill="#fafafa"/><rect width="2.848" height="2.848" transform="translate(72.028 216.528)" fill="#fafafa"/><rect width="2.848" height="2.848" transform="translate(72.028 221.302)" fill="#fafafa"/><rect width="2.848" height="2.848" transform="translate(404.376 203.629)" fill="#fafafa"/><rect width="2.848" height="2.848" transform="translate(404.376 208.403)" fill="#fafafa"/><rect width="2.848" height="2.848" transform="translate(404.376 213.178)" fill="#fafafa"/><rect width="2.848" height="2.848" transform="translate(404.376 217.952)" fill="#fafafa"/><rect width="2.848" height="2.848" transform="translate(404.376 222.726)" fill="#fafafa"/><rect width="2.848" height="2.848" transform="translate(404.376 227.5)" fill="#fafafa"/><rect width="2.848" height="2.848" transform="translate(404.376 232.274)" fill="#fafafa"/><rect width="2.848" height="2.848" transform="translate(404.376 237.048)" fill="#fafafa"/><rect width="2.848" height="2.848" transform="translate(404.376 241.822)" fill="#fafafa"/><rect width="2.848" height="2.848" transform="translate(404.376 246.597)" fill="#fafafa"/><rect width="2.848" height="2.848" transform="translate(404.376 251.371)" fill="#fafafa"/><rect width="2.848" height="2.848" transform="translate(404.376 256.145)" fill="#fafafa"/><rect width="2.848" height="2.848" transform="translate(404.376 260.919)" fill="#fafafa"/><rect width="2.848" height="2.848" transform="translate(404.376 265.693)" fill="#fafafa"/><rect width="2.848" height="2.848" transform="translate(404.376 270.467)" fill="#fafafa"/><rect width="2.848" height="2.848" transform="translate(404.376 275.242)" fill="#fafafa"/><rect width="2.848" height="2.848" transform="translate(404.376 280.016)" fill="#fafafa"/><rect width="2.848" height="2.848" transform="translate(404.376 284.79)" fill="#fafafa"/><rect width="2.848" height="2.848" transform="translate(404.376 289.564)" fill="#fafafa"/><rect width="2.848" height="2.848" transform="translate(404.376 294.338)" fill="#fafafa"/><rect width="2.848" height="2.848" transform="translate(399.854 203.629)" fill="#fafafa"/><rect width="2.848" height="2.848" transform="translate(399.854 208.403)" fill="#fafafa"/><rect width="2.848" height="2.848" transform="translate(399.854 213.178)" fill="#fafafa"/><rect width="2.848" height="2.848" transform="translate(399.854 217.952)" fill="#fafafa"/><rect width="2.848" height="2.848" transform="translate(399.854 222.726)" fill="#fafafa"/><rect width="2.848" height="2.848" transform="translate(399.854 227.5)" fill="#fafafa"/><rect width="2.848" height="2.848" transform="translate(399.854 232.274)" fill="#fafafa"/><rect width="2.848" height="2.848" transform="translate(399.854 237.048)" fill="#fafafa"/><rect width="2.848" height="2.848" transform="translate(399.854 241.822)" fill="#fafafa"/><rect width="2.848" height="2.848" transform="translate(399.854 246.597)" fill="#fafafa"/><rect width="2.848" height="2.848" transform="translate(399.854 251.371)" fill="#fafafa"/><rect width="2.848" height="2.848" transform="translate(399.854 256.145)" fill="#fafafa"/><rect width="2.848" height="2.848" transform="translate(399.854 260.919)" fill="#fafafa"/><rect width="2.848" height="2.848" transform="translate(399.854 265.693)" fill="#fafafa"/><rect width="2.848" height="2.848" transform="translate(399.854 270.467)" fill="#fafafa"/><rect width="2.848" height="2.848" transform="translate(399.854 275.242)" fill="#fafafa"/><rect width="2.848" height="2.848" transform="translate(399.854 280.016)" fill="#fafafa"/><rect width="2.848" height="2.848" transform="translate(399.854 284.79)" fill="#fafafa"/><rect width="2.848" height="2.848" transform="translate(395.331 203.629)" fill="#fafafa"/><rect width="2.848" height="2.848" transform="translate(395.331 208.403)" fill="#fafafa"/><rect width="2.848" height="2.848" transform="translate(395.331 213.178)" fill="#fafafa"/><rect width="2.848" height="2.848" transform="translate(395.331 217.952)" fill="#fafafa"/><rect width="2.848" height="2.848" transform="translate(395.331 222.726)" fill="#fafafa"/><rect width="2.848" height="2.848" transform="translate(395.331 227.5)" fill="#fafafa"/><rect width="2.848" height="2.848" transform="translate(395.331 232.274)" fill="#fafafa"/><rect width="2.848" height="2.848" transform="translate(395.331 237.048)" fill="#fafafa"/><rect width="2.848" height="2.848" transform="translate(395.331 241.822)" fill="#fafafa"/><rect width="2.848" height="2.848" transform="translate(395.331 246.597)" fill="#fafafa"/><rect width="2.848" height="2.848" transform="translate(395.331 251.371)" fill="#fafafa"/><rect width="2.848" height="2.848" transform="translate(395.331 256.145)" fill="#fafafa"/><rect width="2.848" height="2.848" transform="translate(395.331 260.919)" fill="#fafafa"/><rect width="2.848" height="2.848" transform="translate(395.331 265.693)" fill="#fafafa"/><rect width="2.848" height="2.848" transform="translate(395.331 270.467)" fill="#fafafa"/><rect width="2.848" height="2.848" transform="translate(395.331 275.242)" fill="#fafafa"/><rect width="2.848" height="2.848" transform="translate(395.331 280.016)" fill="#fafafa"/><rect width="2.848" height="2.848" transform="translate(395.331 284.79)" fill="#fafafa"/><rect width="2.848" height="2.848" transform="translate(421.296 238.472)" fill="#fafafa"/><rect width="2.848" height="2.848" transform="translate(421.296 243.246)" fill="#fafafa"/><rect width="2.848" height="2.848" transform="translate(421.296 248.02)" fill="#fafafa"/><rect width="2.848" height="2.848" transform="translate(421.296 252.794)" fill="#fafafa"/><rect width="2.848" height="2.848" transform="translate(421.296 257.569)" fill="#fafafa"/><rect width="2.848" height="2.848" transform="translate(421.296 262.343)" fill="#fafafa"/><rect width="2.848" height="2.848" transform="translate(421.296 267.117)" fill="#fafafa"/><rect width="2.848" height="2.848" transform="translate(421.296 271.891)" fill="#fafafa"/><rect width="2.848" height="2.848" transform="translate(421.296 276.665)" fill="#fafafa"/><rect width="2.848" height="2.848" transform="translate(421.296 281.44)" fill="#fafafa"/><rect width="2.848" height="2.848" transform="translate(421.296 286.214)" fill="#fafafa"/><rect width="2.848" height="2.848" transform="translate(421.296 290.988)" fill="#fafafa"/><rect width="2.848" height="2.848" transform="translate(421.296 295.762)" fill="#fafafa"/><rect width="2.848" height="2.848" transform="translate(416.773 238.472)" fill="#fafafa"/><rect width="2.848" height="2.848" transform="translate(416.773 243.246)" fill="#fafafa"/><rect width="2.848" height="2.848" transform="translate(416.773 248.02)" fill="#fafafa"/><rect width="2.848" height="2.848" transform="translate(416.773 252.794)" fill="#fafafa"/><rect width="2.848" height="2.848" transform="translate(416.773 257.569)" fill="#fafafa"/><rect width="2.848" height="2.848" transform="translate(416.773 262.343)" fill="#fafafa"/><rect width="2.848" height="2.848" transform="translate(416.773 267.117)" fill="#fafafa"/><rect width="2.848" height="2.848" transform="translate(416.773 271.891)" fill="#fafafa"/><rect width="2.848" height="2.848" transform="translate(416.773 276.665)" fill="#fafafa"/><rect width="2.848" height="2.848" transform="translate(416.773 281.44)" fill="#fafafa"/><rect width="2.848" height="2.848" transform="translate(416.773 286.214)" fill="#fafafa"/><rect width="2.848" height="2.848" transform="translate(416.773 290.988)" fill="#fafafa"/><rect width="2.848" height="2.848" transform="translate(416.773 295.762)" fill="#fafafa"/><rect width="2.848" height="2.848" transform="translate(412.25 238.472)" fill="#fafafa"/><rect width="2.848" height="2.848" transform="translate(412.25 243.246)" fill="#fafafa"/><rect width="2.848" height="2.848" transform="translate(412.25 248.02)" fill="#fafafa"/><rect width="2.848" height="2.848" transform="translate(412.25 252.794)" fill="#fafafa"/><rect width="2.848" height="2.848" transform="translate(412.25 257.569)" fill="#fafafa"/><rect width="2.848" height="2.848" transform="translate(412.25 262.343)" fill="#fafafa"/><rect width="2.848" height="2.848" transform="translate(412.25 267.117)" fill="#fafafa"/><rect width="2.848" height="2.848" transform="translate(412.25 271.891)" fill="#fafafa"/><rect width="2.848" height="2.848" transform="translate(412.25 276.665)" fill="#fafafa"/><rect width="2.848" height="2.848" transform="translate(412.25 281.44)" fill="#fafafa"/><rect width="2.848" height="2.848" transform="translate(412.25 286.214)" fill="#fafafa"/><rect width="2.848" height="2.848" transform="translate(412.25 290.988)" fill="#fafafa"/><rect width="2.848" height="2.848" transform="translate(412.25 295.762)" fill="#fafafa"/><rect width="2.848" height="2.848" transform="translate(412.25 300.536)" fill="#fafafa"/><rect width="2.848" height="2.848" transform="translate(387.123 239.896)" fill="#fafafa"/><rect width="2.848" height="2.848" transform="translate(387.123 244.67)" fill="#fafafa"/><rect width="2.848" height="2.848" transform="translate(387.123 249.444)" fill="#fafafa"/><rect width="2.848" height="2.848" transform="translate(387.123 254.218)" fill="#fafafa"/><rect width="2.848" height="2.848" transform="translate(387.123 258.993)" fill="#fafafa"/><rect width="2.848" height="2.848" transform="translate(387.123 263.767)" fill="#fafafa"/><rect width="2.848" height="2.848" transform="translate(387.123 268.541)" fill="#fafafa"/><rect width="2.848" height="2.848" transform="translate(387.123 273.315)" fill="#fafafa"/><rect width="2.848" height="2.848" transform="translate(387.123 278.089)" fill="#fafafa"/><rect width="2.848" height="2.848" transform="translate(387.123 282.863)" fill="#fafafa"/><rect width="2.848" height="2.848" transform="translate(387.123 297.186)" fill="#fafafa"/><rect width="2.848" height="2.848" transform="translate(382.6 239.896)" fill="#fafafa"/><rect width="2.848" height="2.848" transform="translate(382.6 244.67)" fill="#fafafa"/><rect width="2.848" height="2.848" transform="translate(382.6 249.444)" fill="#fafafa"/><rect width="2.848" height="2.848" transform="translate(382.6 254.218)" fill="#fafafa"/><rect width="2.848" height="2.848" transform="translate(382.6 258.993)" fill="#fafafa"/><rect width="2.848" height="2.848" transform="translate(382.6 263.767)" fill="#fafafa"/><rect width="2.848" height="2.848" transform="translate(382.6 268.541)" fill="#fafafa"/><rect width="2.848" height="2.848" transform="translate(382.6 273.315)" fill="#fafafa"/><rect width="2.848" height="2.848" transform="translate(382.6 278.089)" fill="#fafafa"/><rect width="2.848" height="2.848" transform="translate(382.6 292.412)" fill="#fafafa"/><rect width="2.848" height="2.848" transform="translate(382.6 297.186)" fill="#fafafa"/><rect width="2.848" height="2.848" transform="translate(378.077 239.896)" fill="#fafafa"/><rect width="2.848" height="2.848" transform="translate(378.077 244.67)" fill="#fafafa"/><rect width="2.848" height="2.848" transform="translate(378.077 249.444)" fill="#fafafa"/><rect width="2.848" height="2.848" transform="translate(378.077 254.218)" fill="#fafafa"/><rect width="2.848" height="2.848" transform="translate(378.077 258.993)" fill="#fafafa"/><rect width="2.848" height="2.848" transform="translate(378.077 263.767)" fill="#fafafa"/><rect width="2.848" height="2.848" transform="translate(378.077 268.541)" fill="#fafafa"/><rect width="2.848" height="2.848" transform="translate(378.077 273.315)" fill="#fafafa"/><rect width="2.848" height="2.848" transform="translate(378.077 287.638)" fill="#fafafa"/><rect width="2.848" height="2.848" transform="translate(378.077 292.412)" fill="#fafafa"/><rect width="2.848" height="2.848" transform="translate(378.077 297.186)" fill="#fafafa"/><rect width="2.848" height="2.848" transform="translate(336.031 167.362)" fill="#fafafa"/><rect width="2.848" height="2.848" transform="translate(336.031 172.136)" fill="#fafafa"/><rect width="2.848" height="2.848" transform="translate(336.031 176.911)" fill="#fafafa"/><rect width="2.848" height="2.848" transform="translate(336.031 181.685)" fill="#fafafa"/><rect width="2.848" height="2.848" transform="translate(336.031 186.459)" fill="#fafafa"/><rect width="2.848" height="2.848" transform="translate(336.031 191.233)" fill="#fafafa"/><rect width="2.848" height="2.848" transform="translate(336.031 196.007)" fill="#fafafa"/><rect width="2.848" height="2.848" transform="translate(336.031 200.781)" fill="#fafafa"/><rect width="2.848" height="2.848" transform="translate(336.031 205.555)" fill="#fafafa"/><rect width="2.848" height="2.848" transform="translate(336.031 210.33)" fill="#fafafa"/><rect width="2.848" height="2.848" transform="translate(336.031 215.104)" fill="#fafafa"/><rect width="2.848" height="2.848" transform="translate(336.031 219.878)" fill="#fafafa"/><rect width="2.848" height="2.848" transform="translate(336.031 224.652)" fill="#fafafa"/><rect width="2.848" height="2.848" transform="translate(336.031 229.426)" fill="#fafafa"/><rect width="2.848" height="2.848" transform="translate(336.031 234.2)" fill="#fafafa"/><rect width="2.848" height="2.848" transform="translate(336.031 238.975)" fill="#fafafa"/><rect width="2.848" height="2.848" transform="translate(336.031 243.749)" fill="#fafafa"/><rect width="2.848" height="2.848" transform="translate(336.031 253.297)" fill="#fafafa"/><rect width="2.848" height="2.848" transform="translate(336.031 258.071)" fill="#fafafa"/><rect width="2.848" height="2.848" transform="translate(336.031 262.845)" fill="#fafafa"/><rect width="2.848" height="2.848" transform="translate(336.031 267.619)" fill="#fafafa"/><rect width="2.848" height="2.848" transform="translate(336.031 272.394)" fill="#fafafa"/><rect width="2.848" height="2.848" transform="translate(331.508 167.362)" fill="#fafafa"/><rect width="2.848" height="2.848" transform="translate(331.508 172.136)" fill="#fafafa"/><rect width="2.848" height="2.848" transform="translate(331.508 176.911)" fill="#fafafa"/><rect width="2.848" height="2.848" transform="translate(331.508 181.685)" fill="#fafafa"/><rect width="2.848" height="2.848" transform="translate(331.508 186.459)" fill="#fafafa"/><rect width="2.848" height="2.848" transform="translate(331.508 191.233)" fill="#fafafa"/><rect width="2.848" height="2.848" transform="translate(331.508 196.007)" fill="#fafafa"/><rect width="2.848" height="2.848" transform="translate(331.508 200.781)" fill="#fafafa"/><rect width="2.848" height="2.848" transform="translate(331.508 205.555)" fill="#fafafa"/><rect width="2.848" height="2.848" transform="translate(331.508 210.33)" fill="#fafafa"/><rect width="2.848" height="2.848" transform="translate(331.508 215.104)" fill="#fafafa"/><rect width="2.848" height="2.848" transform="translate(331.508 219.878)" fill="#fafafa"/><rect width="2.848" height="2.848" transform="translate(331.508 224.652)" fill="#fafafa"/><rect width="2.848" height="2.848" transform="translate(331.508 229.426)" fill="#fafafa"/><rect width="2.848" height="2.848" transform="translate(331.508 234.2)" fill="#fafafa"/><rect width="2.848" height="2.848" transform="translate(331.508 238.975)" fill="#fafafa"/><rect width="2.848" height="2.848" transform="translate(331.508 267.619)" fill="#fafafa"/><rect width="2.848" height="2.848" transform="translate(331.508 272.394)" fill="#fafafa"/><rect width="2.848" height="2.848" transform="translate(326.985 167.362)" fill="#fafafa"/><rect width="2.848" height="2.848" transform="translate(326.985 172.136)" fill="#fafafa"/><rect width="2.848" height="2.848" transform="translate(326.985 176.911)" fill="#fafafa"/><rect width="2.848" height="2.848" transform="translate(326.985 181.685)" fill="#fafafa"/><rect width="2.848" height="2.848" transform="translate(326.985 186.459)" fill="#fafafa"/><rect width="2.848" height="2.848" transform="translate(326.985 191.233)" fill="#fafafa"/><rect width="2.848" height="2.848" transform="translate(326.985 196.007)" fill="#fafafa"/><rect width="2.848" height="2.848" transform="translate(326.985 200.781)" fill="#fafafa"/><rect width="2.848" height="2.848" transform="translate(326.985 205.555)" fill="#fafafa"/><rect width="2.848" height="2.848" transform="translate(326.985 210.33)" fill="#fafafa"/><rect width="2.848" height="2.848" transform="translate(326.985 215.104)" fill="#fafafa"/><rect width="2.848" height="2.848" transform="translate(326.985 219.878)" fill="#fafafa"/><rect width="2.848" height="2.848" transform="translate(326.985 224.652)" fill="#fafafa"/><rect width="2.848" height="2.848" transform="translate(326.985 229.426)" fill="#fafafa"/><rect width="2.848" height="2.848" transform="translate(326.985 234.2)" fill="#fafafa"/><rect width="2.848" height="2.848" transform="translate(326.985 238.975)" fill="#fafafa"/><rect width="2.848" height="2.848" transform="translate(326.985 248.523)" fill="#fafafa"/><rect width="2.848" height="2.848" transform="translate(326.985 253.297)" fill="#fafafa"/><rect width="2.848" height="2.848" transform="translate(326.985 258.071)" fill="#fafafa"/><rect width="2.848" height="2.848" transform="translate(326.985 262.845)" fill="#fafafa"/><rect width="2.848" height="2.848" transform="translate(326.985 272.394)" fill="#fafafa"/><rect width="2.848" height="2.848" transform="translate(352.447 227.5)" fill="#fafafa"/><rect width="2.848" height="2.848" transform="translate(352.447 232.274)" fill="#fafafa"/><rect width="2.848" height="2.848" transform="translate(352.447 237.048)" fill="#fafafa"/><rect width="2.848" height="2.848" transform="translate(352.447 241.822)" fill="#fafafa"/><rect width="2.848" height="2.848" transform="translate(352.447 246.597)" fill="#fafafa"/><rect width="2.848" height="2.848" transform="translate(352.447 251.371)" fill="#fafafa"/><rect width="2.848" height="2.848" transform="translate(352.447 256.145)" fill="#fafafa"/><rect width="2.848" height="2.848" transform="translate(352.447 265.693)" fill="#fafafa"/><rect width="2.848" height="2.848" transform="translate(352.447 270.467)" fill="#fafafa"/><rect width="2.848" height="2.848" transform="translate(352.447 275.242)" fill="#fafafa"/><rect width="2.848" height="2.848" transform="translate(352.447 280.016)" fill="#fafafa"/><rect width="2.848" height="2.848" transform="translate(352.447 284.79)" fill="#fafafa"/><rect width="2.848" height="2.848" transform="translate(352.447 289.564)" fill="#fafafa"/><rect width="2.848" height="2.848" transform="translate(352.447 294.338)" fill="#fafafa"/><rect width="2.848" height="2.848" transform="translate(352.447 299.112)" fill="#fafafa"/><rect width="2.848" height="2.848" transform="translate(347.924 227.5)" fill="#fafafa"/><rect width="2.848" height="2.848" transform="translate(347.924 232.274)" fill="#fafafa"/><rect width="2.848" height="2.848" transform="translate(347.924 237.048)" fill="#fafafa"/><rect width="2.848" height="2.848" transform="translate(347.924 241.822)" fill="#fafafa"/><rect width="2.848" height="2.848" transform="translate(347.924 246.597)" fill="#fafafa"/><rect width="2.848" height="2.848" transform="translate(347.924 251.371)" fill="#fafafa"/><rect width="2.848" height="2.848" transform="translate(347.924 265.693)" fill="#fafafa"/><rect width="2.848" height="2.848" transform="translate(347.924 270.467)" fill="#fafafa"/><rect width="2.848" height="2.848" transform="translate(347.924 275.242)" fill="#fafafa"/><rect width="2.848" height="2.848" transform="translate(347.924 280.016)" fill="#fafafa"/><rect width="2.848" height="2.848" transform="translate(347.924 284.79)" fill="#fafafa"/><rect width="2.848" height="2.848" transform="translate(347.924 289.564)" fill="#fafafa"/><rect width="2.848" height="2.848" transform="translate(347.924 294.338)" fill="#fafafa"/><rect width="2.848" height="2.848" transform="translate(347.924 299.112)" fill="#fafafa"/><rect width="2.848" height="2.848" transform="translate(343.401 227.5)" fill="#fafafa"/><rect width="2.848" height="2.848" transform="translate(343.401 232.274)" fill="#fafafa"/><rect width="2.848" height="2.848" transform="translate(343.401 237.048)" fill="#fafafa"/><rect width="2.848" height="2.848" transform="translate(343.401 241.822)" fill="#fafafa"/><rect width="2.848" height="2.848" transform="translate(343.401 246.597)" fill="#fafafa"/><rect width="2.848" height="2.848" transform="translate(343.401 251.371)" fill="#fafafa"/><rect width="2.848" height="2.848" transform="translate(343.401 260.919)" fill="#fafafa"/><rect width="2.848" height="2.848" transform="translate(343.401 265.693)" fill="#fafafa"/><rect width="2.848" height="2.848" transform="translate(343.401 270.467)" fill="#fafafa"/><rect width="2.848" height="2.848" transform="translate(343.401 275.242)" fill="#fafafa"/><rect width="2.848" height="2.848" transform="translate(343.401 280.016)" fill="#fafafa"/><rect width="2.848" height="2.848" transform="translate(343.401 284.79)" fill="#fafafa"/><rect width="2.848" height="2.848" transform="translate(343.401 289.564)" fill="#fafafa"/><rect width="2.848" height="2.848" transform="translate(343.401 294.338)" fill="#fafafa"/><rect width="2.848" height="2.848" transform="translate(343.401 299.112)" fill="#fafafa"/><rect width="2.848" height="2.848" transform="translate(248.086 200.781)" fill="#fafafa"/><rect width="2.848" height="2.848" transform="translate(248.086 205.555)" fill="#fafafa"/><rect width="2.848" height="2.848" transform="translate(248.086 210.33)" fill="#fafafa"/><rect width="2.848" height="2.848" transform="translate(248.086 215.104)" fill="#fafafa"/><rect width="2.848" height="2.848" transform="translate(248.086 219.878)" fill="#fafafa"/><rect width="2.848" height="2.848" transform="translate(248.086 224.652)" fill="#fafafa"/><rect width="2.848" height="2.848" transform="translate(248.086 229.426)" fill="#fafafa"/><rect width="2.848" height="2.848" transform="translate(248.086 234.2)" fill="#fafafa"/><rect width="2.848" height="2.848" transform="translate(248.086 238.975)" fill="#fafafa"/><rect width="2.848" height="2.848" transform="translate(248.086 243.749)" fill="#fafafa"/><rect width="2.848" height="2.848" transform="translate(248.086 248.523)" fill="#fafafa"/><rect width="2.848" height="2.848" transform="translate(248.086 253.297)" fill="#fafafa"/><rect width="2.848" height="2.848" transform="translate(248.086 258.071)" fill="#fafafa"/><rect width="2.848" height="2.848" transform="translate(248.086 267.619)" fill="#fafafa"/><rect width="2.848" height="2.848" transform="translate(248.086 272.394)" fill="#fafafa"/><rect width="2.848" height="2.848" transform="translate(248.086 277.168)" fill="#fafafa"/><rect width="2.848" height="2.848" transform="translate(248.086 281.942)" fill="#fafafa"/><rect width="2.848" height="2.848" transform="translate(248.086 291.49)" fill="#fafafa"/><rect width="2.848" height="2.848" transform="translate(248.086 296.265)" fill="#fafafa"/><rect width="2.848" height="2.848" transform="translate(248.086 301.039)" fill="#fafafa"/><rect width="2.848" height="2.848" transform="translate(243.563 200.781)" fill="#fafafa"/><rect width="2.848" height="2.848" transform="translate(243.563 205.555)" fill="#fafafa"/><rect width="2.848" height="2.848" transform="translate(243.563 210.33)" fill="#fafafa"/><rect width="2.848" height="2.848" transform="translate(243.563 215.104)" fill="#fafafa"/><rect width="2.848" height="2.848" transform="translate(243.563 219.878)" fill="#fafafa"/><rect width="2.848" height="2.848" transform="translate(243.563 224.652)" fill="#fafafa"/><rect width="2.848" height="2.848" transform="translate(243.563 229.426)" fill="#fafafa"/><rect width="2.848" height="2.848" transform="translate(243.563 234.2)" fill="#fafafa"/><rect width="2.848" height="2.848" transform="translate(243.563 238.975)" fill="#fafafa"/><rect width="2.848" height="2.848" transform="translate(243.563 243.749)" fill="#fafafa"/><rect width="2.848" height="2.848" transform="translate(243.563 248.523)" fill="#fafafa"/><rect width="2.848" height="2.848" transform="translate(243.563 253.297)" fill="#fafafa"/><rect width="2.848" height="2.848" transform="translate(243.563 258.071)" fill="#fafafa"/><rect width="2.848" height="2.848" transform="translate(243.563 272.394)" fill="#fafafa"/><rect width="2.848" height="2.848" transform="translate(243.563 277.168)" fill="#fafafa"/><rect width="2.848" height="2.848" transform="translate(243.563 286.716)" fill="#fafafa"/><rect width="2.848" height="2.848" transform="translate(243.563 291.49)" fill="#fafafa"/><rect width="2.848" height="2.848" transform="translate(243.563 296.265)" fill="#fafafa"/><rect width="2.848" height="2.848" transform="translate(243.563 301.039)" fill="#fafafa"/><rect width="2.848" height="2.848" transform="translate(239.04 200.781)" fill="#fafafa"/><rect width="2.848" height="2.848" transform="translate(239.04 205.555)" fill="#fafafa"/><rect width="2.848" height="2.848" transform="translate(239.04 210.33)" fill="#fafafa"/><rect width="2.848" height="2.848" transform="translate(239.04 215.104)" fill="#fafafa"/><rect width="2.848" height="2.848" transform="translate(239.04 219.878)" fill="#fafafa"/><rect width="2.848" height="2.848" transform="translate(239.04 224.652)" fill="#fafafa"/><rect width="2.848" height="2.848" transform="translate(239.04 229.426)" fill="#fafafa"/><rect width="2.848" height="2.848" transform="translate(239.04 234.2)" fill="#fafafa"/><rect width="2.848" height="2.848" transform="translate(239.04 238.975)" fill="#fafafa"/><rect width="2.848" height="2.848" transform="translate(239.04 243.749)" fill="#fafafa"/><rect width="2.848" height="2.848" transform="translate(239.04 248.523)" fill="#fafafa"/><rect width="2.848" height="2.848" transform="translate(239.04 253.297)" fill="#fafafa"/><rect width="2.848" height="2.848" transform="translate(239.04 258.071)" fill="#fafafa"/><rect width="2.848" height="2.848" transform="translate(239.04 262.845)" fill="#fafafa"/><rect width="2.848" height="2.848" transform="translate(239.04 272.394)" fill="#fafafa"/><rect width="2.848" height="2.848" transform="translate(239.04 281.942)" fill="#fafafa"/><rect width="2.848" height="2.848" transform="translate(239.04 286.716)" fill="#fafafa"/><rect width="2.848" height="2.848" transform="translate(239.04 291.49)" fill="#fafafa"/><rect width="2.848" height="2.848" transform="translate(239.04 296.265)" fill="#fafafa"/><rect width="2.848" height="2.848" transform="translate(239.04 301.039)" fill="#fafafa"/><rect width="2.848" height="2.848" transform="translate(266.512 228.003)" fill="#fafafa"/><rect width="2.848" height="2.848" transform="translate(266.512 232.777)" fill="#fafafa"/><rect width="2.848" height="2.848" transform="translate(266.512 237.551)" fill="#fafafa"/><rect width="2.848" height="2.848" transform="translate(266.512 242.325)" fill="#fafafa"/><rect width="2.848" height="2.848" transform="translate(266.512 247.099)" fill="#fafafa"/><rect width="2.848" height="2.848" transform="translate(266.512 251.873)" fill="#fafafa"/><rect width="2.848" height="2.848" transform="translate(266.512 266.196)" fill="#fafafa"/><rect width="2.848" height="2.848" transform="translate(266.512 270.97)" fill="#fafafa"/><rect width="2.848" height="2.848" transform="translate(266.512 275.744)" fill="#fafafa"/><rect width="2.848" height="2.848" transform="translate(266.512 280.518)" fill="#fafafa"/><rect width="2.848" height="2.848" transform="translate(266.512 285.292)" fill="#fafafa"/><rect width="2.848" height="2.848" transform="translate(266.512 290.067)" fill="#fafafa"/><rect width="2.848" height="2.848" transform="translate(266.512 294.841)" fill="#fafafa"/><rect width="2.848" height="2.848" transform="translate(261.989 228.003)" fill="#fafafa"/><rect width="2.848" height="2.848" transform="translate(261.989 232.777)" fill="#fafafa"/><rect width="2.848" height="2.848" transform="translate(261.989 237.551)" fill="#fafafa"/><rect width="2.848" height="2.848" transform="translate(261.989 242.325)" fill="#fafafa"/><rect width="2.848" height="2.848" transform="translate(261.989 247.099)" fill="#fafafa"/><rect width="2.848" height="2.848" transform="translate(261.989 251.873)" fill="#fafafa"/><rect width="2.848" height="2.848" transform="translate(261.989 266.196)" fill="#fafafa"/><rect width="2.848" height="2.848" transform="translate(261.989 270.97)" fill="#fafafa"/><rect width="2.848" height="2.848" transform="translate(261.989 275.744)" fill="#fafafa"/><rect width="2.848" height="2.848" transform="translate(261.989 280.518)" fill="#fafafa"/><rect width="2.848" height="2.848" transform="translate(261.989 285.292)" fill="#fafafa"/><rect width="2.848" height="2.848" transform="translate(261.989 290.067)" fill="#fafafa"/><rect width="2.848" height="2.848" transform="translate(261.989 299.615)" fill="#fafafa"/><rect width="2.848" height="2.848" transform="translate(111.729 206.979)" fill="#fafafa"/><rect width="2.848" height="2.848" transform="translate(111.729 211.754)" fill="#fafafa"/><rect width="2.848" height="2.848" transform="translate(111.729 216.528)" fill="#fafafa"/><rect width="2.848" height="2.848" transform="translate(111.729 221.302)" fill="#fafafa"/><rect width="2.848" height="2.848" transform="translate(111.729 226.076)" fill="#fafafa"/><rect width="2.848" height="2.848" transform="translate(111.729 230.85)" fill="#fafafa"/><rect width="2.848" height="2.848" transform="translate(111.729 235.624)" fill="#fafafa"/><rect width="2.848" height="2.848" transform="translate(111.729 240.399)" fill="#fafafa"/><rect width="2.848" height="2.848" transform="translate(111.729 245.173)" fill="#fafafa"/><rect width="2.848" height="2.848" transform="translate(111.729 249.947)" fill="#fafafa"/><rect width="2.848" height="2.848" transform="translate(111.729 254.721)" fill="#fafafa"/><rect width="2.848" height="2.848" transform="translate(111.729 264.269)" fill="#fafafa"/><rect width="2.848" height="2.848" transform="translate(111.729 269.044)" fill="#fafafa"/><rect width="2.848" height="2.848" transform="translate(111.729 273.818)" fill="#fafafa"/><rect width="2.848" height="2.848" transform="translate(111.729 278.592)" fill="#fafafa"/><rect width="2.848" height="2.848" transform="translate(111.729 283.366)" fill="#fafafa"/><rect width="2.848" height="2.848" transform="translate(111.729 288.14)" fill="#fafafa"/><rect width="2.848" height="2.848" transform="translate(111.729 292.914)" fill="#fafafa"/><rect width="2.848" height="2.848" transform="translate(111.729 297.688)" fill="#fafafa"/><rect width="2.848" height="2.848" transform="translate(107.206 206.979)" fill="#fafafa"/><rect width="2.848" height="2.848" transform="translate(107.206 211.754)" fill="#fafafa"/><rect width="2.848" height="2.848" transform="translate(107.206 216.528)" fill="#fafafa"/><rect width="2.848" height="2.848" transform="translate(107.206 221.302)" fill="#fafafa"/><rect width="2.848" height="2.848" transform="translate(107.206 226.076)" fill="#fafafa"/><rect width="2.848" height="2.848" transform="translate(107.206 230.85)" fill="#fafafa"/><rect width="2.848" height="2.848" transform="translate(107.206 235.624)" fill="#fafafa"/><rect width="2.848" height="2.848" transform="translate(107.206 240.399)" fill="#fafafa"/><rect width="2.848" height="2.848" transform="translate(107.206 245.173)" fill="#fafafa"/><rect width="2.848" height="2.848" transform="translate(107.206 249.947)" fill="#fafafa"/><rect width="2.848" height="2.848" transform="translate(107.206 254.721)" fill="#fafafa"/><rect width="2.848" height="2.848" transform="translate(107.206 259.495)" fill="#fafafa"/><rect width="2.848" height="2.848" transform="translate(107.206 264.269)" fill="#fafafa"/><rect width="2.848" height="2.848" transform="translate(107.206 269.044)" fill="#fafafa"/><rect width="2.848" height="2.848" transform="translate(107.206 273.818)" fill="#fafafa"/><rect width="2.848" height="2.848" transform="translate(107.206 278.592)" fill="#fafafa"/><rect width="2.848" height="2.848" transform="translate(107.206 283.366)" fill="#fafafa"/><rect width="2.848" height="2.848" transform="translate(107.206 288.14)" fill="#fafafa"/><rect width="2.848" height="2.848" transform="translate(107.206 292.914)" fill="#fafafa"/><rect width="2.848" height="2.848" transform="translate(107.206 297.688)" fill="#fafafa"/><rect width="2.848" height="2.848" transform="translate(134.008 225.574)" fill="#fafafa"/><rect width="2.848" height="2.848" transform="translate(134.008 230.348)" fill="#fafafa"/><rect width="2.848" height="2.848" transform="translate(134.008 235.122)" fill="#fafafa"/><rect width="2.848" height="2.848" transform="translate(134.008 239.896)" fill="#fafafa"/><rect width="2.848" height="2.848" transform="translate(134.008 244.67)" fill="#fafafa"/><rect width="2.848" height="2.848" transform="translate(134.008 249.444)" fill="#fafafa"/><rect width="2.848" height="2.848" transform="translate(134.008 254.218)" fill="#fafafa"/><rect width="2.848" height="2.848" transform="translate(134.008 258.993)" fill="#fafafa"/><rect width="2.848" height="2.848" transform="translate(134.008 263.767)" fill="#fafafa"/><rect width="2.848" height="2.848" transform="translate(134.008 268.541)" fill="#fafafa"/><rect width="2.848" height="2.848" transform="translate(129.485 225.574)" fill="#fafafa"/><rect width="2.848" height="2.848" transform="translate(129.485 230.348)" fill="#fafafa"/><rect width="2.848" height="2.848" transform="translate(129.485 235.122)" fill="#fafafa"/><rect width="2.848" height="2.848" transform="translate(129.485 239.896)" fill="#fafafa"/><rect width="2.848" height="2.848" transform="translate(129.485 244.67)" fill="#fafafa"/><rect width="2.848" height="2.848" transform="translate(129.485 249.444)" fill="#fafafa"/><rect width="2.848" height="2.848" transform="translate(129.485 254.218)" fill="#fafafa"/><rect width="2.848" height="2.848" transform="translate(129.485 258.993)" fill="#fafafa"/><rect width="2.848" height="2.848" transform="translate(129.485 263.767)" fill="#fafafa"/></g><g clip-path="url(#a)"><path d="M443.889,361.286c0,6.254-86.807,11.323-193.889,11.323S56.111,367.54,56.111,361.286,142.918,349.963,250,349.963s193.889,5.07,193.889,11.323" fill="#f5f5f5"/></g><g clip-path="url(#a)"><path d="M306.267,23.916s.359,18.2,8.376,19.78,19.026-19.78,19.026-19.78-6.711,21.206-4.509,24.449,30.684-9.416,30.684-9.416-17.235,20.3-15.342,23.8,15.342,1.917,15.342,1.917-14,1.978-14.518,8.7,29.553,15.824,29.553,15.824-28.314-1.583-30.377,3.165,6.641,15.569,6.641,15.569-7.789-9.151-15.33-7.657,2,35.589,2,35.589-17.834-22.443-22.032-22.489-5.515,18.218-5.515,18.218-1.7-17.955-5.136-17.912-8.375,22.183-8.375,22.183,3.369-23.592,0-25.041-26.243,27.531-26.243,27.531,12.7-31.8,11.257-34.347-23.18,6.753-23.18,6.753S275.978,97.1,274.4,91.564s-36-5.934-36-5.934,29.021-5.142,32.115-8.307-17.127-21.759-17.127-21.759,21.741,5.934,24.343,4.352-7.581-24.527-11.39-30.066c0,0,16.762,19.623,21.9,18.515s4.4-20.1,4.4-20.1,5.881,11.472,9.837,11.472,3.783-15.824,3.783-15.824" fill="#407bff"/><g opacity="0.8"><g clip-path="url(#e)"><path d="M306.267,23.916s.359,18.2,8.376,19.78,19.026-19.78,19.026-19.78-6.711,21.206-4.509,24.449,30.684-9.416,30.684-9.416-17.235,20.3-15.342,23.8,15.342,1.917,15.342,1.917-14,1.978-14.518,8.7,29.553,15.824,29.553,15.824-28.314-1.583-30.377,3.165,6.641,15.569,6.641,15.569-7.789-9.151-15.33-7.657,2,35.589,2,35.589-17.834-22.443-22.032-22.489-5.515,18.218-5.515,18.218-1.7-17.955-5.136-17.912-8.375,22.183-8.375,22.183,3.369-23.592,0-25.041-26.243,27.531-26.243,27.531,12.7-31.8,11.257-34.347-23.18,6.753-23.18,6.753S275.978,97.1,274.4,91.564s-36-5.934-36-5.934,29.021-5.142,32.115-8.307-17.127-21.759-17.127-21.759,21.741,5.934,24.343,4.352-7.581-24.527-11.39-30.066c0,0,16.762,19.623,21.9,18.515s4.4-20.1,4.4-20.1,5.881,11.472,9.837,11.472,3.783-15.824,3.783-15.824" fill="#fff"/></g></g><g opacity="0.4"><g clip-path="url(#f)"><path d="M340.738,77.452a30.474,30.474,0,1,1-30.473-30.473,30.473,30.473,0,0,1,30.473,30.473" fill="#fff"/></g></g></g><rect width="394.137" height="51.486" transform="translate(49.752 296.484)" fill="#263238"/><g clip-path="url(#a)"><g opacity="0.6"><g clip-path="url(#h)"><rect width="394.137" height="51.486" transform="translate(49.752 296.484)" fill="#fff"/></g></g><g opacity="0.2"><g clip-path="url(#i)"><rect width="35.967" height="11.123" transform="translate(56.111 303.166)" fill="#fff"/></g></g><g opacity="0.2"><g clip-path="url(#j)"><rect width="35.967" height="11.123" transform="translate(93.777 303.166)" fill="#fff"/></g></g><g opacity="0.2"><g clip-path="url(#k)"><rect width="35.967" height="11.123" transform="translate(182.467 320.116)" fill="#fff"/></g></g><g opacity="0.2"><g clip-path="url(#l)"><rect width="35.967" height="11.123" transform="translate(249.353 301.813)" fill="#fff"/></g></g><g opacity="0.2"><g clip-path="url(#m)"><rect width="35.967" height="11.123" transform="translate(269.12 315.303)" fill="#fff"/></g></g><g opacity="0.2"><g clip-path="url(#n)"><rect width="35.967" height="11.123" transform="translate(400.46 333.485)" fill="#fff"/></g></g><g opacity="0.2"><g clip-path="url(#o)"><rect width="35.967" height="11.123" transform="translate(361.887 333.667)" fill="#fff"/></g></g><g opacity="0.2"><g clip-path="url(#p)"><rect width="35.967" height="11.123" transform="translate(379.871 320.116)" fill="#fff"/></g></g><g opacity="0.2"><g clip-path="url(#q)"><rect width="35.967" height="11.123" transform="translate(74.095 315.303)" fill="#fff"/></g></g><g opacity="0.2"><g clip-path="url(#r)"><rect width="35.967" height="11.123" transform="translate(167.047 333.485)" fill="#fff"/></g></g></g><rect width="397.978" height="10.659" transform="translate(47.923 289.154)" fill="#263238"/><g clip-path="url(#a)"><g opacity="0.7"><g clip-path="url(#t)"><rect width="397.978" height="10.659" transform="translate(47.923 289.154)" fill="#fff"/></g></g></g><rect width="2.875" height="14.004" transform="translate(139.132 344.171)" fill="#407bff"/><rect width="2.875" height="14.004" transform="translate(217.856 344.171)" fill="#407bff"/><rect width="13.361" height="110.105" transform="translate(241.023 248.114)" fill="#407bff"/><g clip-path="url(#a)"><g opacity="0.6"><g clip-path="url(#v)"><rect width="2.875" height="14.004" transform="translate(139.132 344.171)" fill="#fff"/></g></g><g opacity="0.6"><g clip-path="url(#w)"><rect width="2.875" height="14.004" transform="translate(217.856 344.171)" fill="#fff"/></g></g><g opacity="0.6"><g clip-path="url(#x)"><rect width="13.361" height="110.105" transform="translate(241.023 248.114)" fill="#fff"/></g></g></g><path d="M272.578,360.607H122.986l4.246-4.865h141.1Z" fill="#407bff"/><g clip-path="url(#a)"><g opacity="0.2"><g clip-path="url(#z)"><path d="M272.578,360.607H229.152l4.246-4.865h34.934Z" fill="#fff"/></g></g><path d="M182.352,240.161l-46.6,107.186a2.354,2.354,0,0,0,2.16,3.294h79.875a3,3,0,0,0,2.751-1.8l46.6-107.186a2.355,2.355,0,0,0-2.16-3.294H185.1a3,3,0,0,0-2.752,1.8" fill="#407bff"/><g opacity="0.7"><g clip-path="url(#aa)"><path d="M182.352,240.161l-46.6,107.186a2.354,2.354,0,0,0,2.16,3.294h79.875a3,3,0,0,0,2.751-1.8l46.6-107.186a2.355,2.355,0,0,0-2.16-3.294H185.1a3,3,0,0,0-2.752,1.8" fill="#fff"/></g></g><g opacity="0.2" style="isolation:isolate"><g clip-path="url(#ab)"><path d="M209.738,307.375l14.1-32.44H192.929l-14.1,32.44Z"/></g></g><g opacity="0.2" style="isolation:isolate"><g clip-path="url(#ac)"><path d="M140.73,345.563a1.2,1.2,0,1,0,1.2,1.2,1.2,1.2,0,0,0-1.2-1.2"/></g></g><g opacity="0.2" style="isolation:isolate"><g clip-path="url(#ad)"><path d="M215.2,345.563a1.2,1.2,0,1,0,1.2,1.2,1.2,1.2,0,0,0-1.2-1.2"/></g></g><g opacity="0.2" style="isolation:isolate"><g clip-path="url(#ae)"><path d="M186.317,241.365a1.2,1.2,0,1,0,1.2,1.2,1.2,1.2,0,0,0-1.2-1.2"/></g></g><g opacity="0.2" style="isolation:isolate"><g clip-path="url(#af)"><path d="M260.791,241.365a1.2,1.2,0,1,0,1.2,1.2,1.2,1.2,0,0,0-1.2-1.2"/></g></g><rect width="2.875" height="14.004" transform="translate(270.475 344.171)" fill="#407bff"/><rect width="2.875" height="14.004" transform="translate(349.2 344.171)" fill="#407bff"/><rect width="13.362" height="110.105" transform="translate(372.366 248.114)" fill="#407bff"/><g opacity="0.6"><g clip-path="url(#ag)"><rect width="2.875" height="14.004" transform="translate(270.475 344.171)" fill="#fff"/></g></g><g opacity="0.6"><g clip-path="url(#ah)"><rect width="2.875" height="14.004" transform="translate(349.2 344.171)" fill="#fff"/></g></g><g opacity="0.6"><g clip-path="url(#ai)"><rect width="13.362" height="110.105" transform="translate(372.366 248.114)" fill="#fff"/></g></g><path d="M415.977,199.452l-66.14,152.13h-97.85l66.14-152.13Z" fill="#263238"/><g opacity="0.6"><g clip-path="url(#aj)"><path d="M415.977,199.452l-66.14,152.13h-97.85l66.14-152.13Z" fill="#fff"/></g></g><path d="M375.362,287.468h-22.05l-8.634,19.857h22.051Z" fill="#263238"/><path d="M335.165,329.206h22.05l8.634-19.858H343.8Z" fill="#263238"/><path d="M351.331,287.468h-22.05l-8.634,19.857H342.7Z" fill="#263238"/><path d="M403.9,221.823h-22.05l-8.634,19.858h22.051Z" fill="#263238"/><path d="M311.134,329.206h22.05l8.634-19.858H319.767Z" fill="#263238"/><path d="M384.875,265.586h-22.05l-8.634,19.858h22.05Z" fill="#263238"/><path d="M394.388,243.7h-22.05L363.7,263.562h22.051Z" fill="#263238"/><path d="M304.148,285.444l8.634-19.858H291.358l-8.634,19.858Z" fill="#263238"/><path d="M294.635,307.325l8.633-19.857H281.845l-8.633,19.857Z" fill="#263238"/><path d="M331.809,221.823H310.385l-8.634,19.858h21.423Z" fill="#263238"/><path d="M285.122,329.206l8.633-19.858H272.332L263.7,329.206Z" fill="#263238"/><path d="M313.662,263.562l8.633-19.857H300.872l-8.633,19.857Z" fill="#263238"/><path d="M412.749,201.474H390.7L382.732,219.8h22.05Z" fill="#263238"/><path d="M356.336,331.23h-22.05l-7.967,18.325h22.05Z" fill="#263238"/><path d="M284.242,331.23H262.819l-7.968,18.325h21.424Z" fill="#263238"/><path d="M332.688,219.8l7.967-18.325H319.232L311.265,219.8Z" fill="#263238"/><path d="M336.813,265.586h-22.05l-8.634,19.858h22.05Z" fill="#263238"/><path d="M327.3,287.468H305.25l-8.634,19.857h22.051Z" fill="#263238"/><path d="M388.718,201.474h-22.05L358.7,219.8h22.05Z" fill="#263238"/><path d="M332.3,331.23h-22.05l-7.967,18.325h22.05Z" fill="#263238"/><path d="M379.871,221.823h-22.05l-8.634,19.858h22.051Z" fill="#263238"/><path d="M370.357,243.7h-22.05l-8.634,19.857h22.051Z" fill="#263238"/><path d="M287.1,329.206h22.05l8.634-19.858H295.736Z" fill="#263238"/><path d="M300.306,349.555l7.967-18.325h-22.05l-7.967,18.325Z" fill="#263238"/><path d="M364.686,201.474h-22.05L334.669,219.8h22.05Z" fill="#263238"/><path d="M360.844,265.586h-22.05l-8.634,19.858h22.05Z" fill="#263238"/><path d="M355.84,221.823H333.79l-8.634,19.858h22.05Z" fill="#263238"/><path d="M346.326,243.7h-22.05l-8.634,19.857h22.051Z" fill="#263238"/><g opacity="0.1"><g clip-path="url(#ak)"><path d="M381.264,199.447l-87.618,56.327,24.489-56.327Z" fill="#fff"/><path d="M409.3,199.447,282.768,280.794l5.961-13.709,105.212-67.639Z" fill="#fff"/><path d="M410.3,212.515l-2.986,6.867-135.8,87.294,2.986-6.867Z" fill="#fff"/></g></g><g opacity="0.1"><g clip-path="url(#al)"><path d="M354.9,339.945l-5.059,11.637H336.8Z" fill="#fff"/><path d="M363.488,320.183l-4.71,10.834L326.8,351.582H314.655Z" fill="#fff"/><path d="M372.361,299.773l-2.35,5.4-72.179,46.4h-6.065Z" fill="#fff"/></g></g><path d="M407.977,360.607H258.385l4.246-4.865h141.1Z" fill="#407bff"/><g opacity="0.2"><g clip-path="url(#am)"><path d="M407.977,360.607H364.551l4.246-4.865h34.934Z" fill="#fff"/></g></g></g><path d="M222.121,334.96H199.7v1.648H202.4l5.548,6.891h.99l-5.549-6.891h18.735Z" fill="#263238"/><g clip-path="url(#a)"><g opacity="0.2"><g clip-path="url(#ao)"><path d="M222.121,334.96H199.7v1.648H202.4l5.548,6.891h.99l-5.549-6.891h18.735Z" fill="#fff"/></g></g><path d="M252.175,328.918a14.13,14.13,0,0,0-6.887-8.028H211.6l-4.265,2.018,6.56,19.469h33.693l4.265-2.018a16.529,16.529,0,0,0,.327-11.441" fill="#263238"/><rect width="54.231" height="21.988" transform="translate(193.472 342.377)" fill="#263238"/><g opacity="0.2"><g clip-path="url(#ap)"><rect width="33.702" height="21.988" transform="translate(214.001 342.377)" fill="#fff"/></g></g><g opacity="0.2"><g clip-path="url(#aq)"><path d="M251.85,340.358H218.16a16.552,16.552,0,0,0,.32-11.44,14.119,14.119,0,0,0-6.89-8.03h33.7a14.121,14.121,0,0,1,6.88,8.03,16.552,16.552,0,0,1-.32,11.44" fill="#fff"/></g></g><g opacity="0.1"><g clip-path="url(#ar)"><path d="M251.85,340.358l-4.27,2.02H213.89l4.27-2.02Z" fill="#fff"/></g></g><g opacity="0.2" style="isolation:isolate"><g clip-path="url(#as)"><path d="M228.055,329.206a28.984,28.984,0,0,0,10.484,2.753c5.406.2,6.989-2.753,6.989-2.753l-.745-2.31s-1.3,2.12-5.19,2.537-12.2-2.617-12.2-2.617Z"/></g></g><path d="M227.4,326.817s5.341-2.637,10.154-2.176a15.345,15.345,0,0,1,7.233,2.256l.745,2.31s-7.239-4.481-17.473,0Z" fill="#263238"/></g><rect width="148.915" height="97.85" transform="matrix(0.013, -1, 1, 0.013, 120.003, 259.662)" fill="#263238"/><g clip-path="url(#a)"><g opacity="0.6"><g clip-path="url(#au)"><rect width="148.915" height="97.85" transform="matrix(0.013, -1, 1, 0.013, 120.003, 259.662)" fill="#fff"/></g></g></g><rect width="19.438" height="22.05" transform="translate(193.999 217.28) rotate(-89.27)" fill="#263238"/><rect width="19.438" height="22.05" transform="translate(193.726 238.697) rotate(-89.27)" fill="#263238"/><rect width="19.438" height="22.05" transform="translate(169.97 216.973) rotate(-89.27)" fill="#263238"/><rect width="19.439" height="22.05" transform="translate(194.818 153.028) rotate(-89.27)" fill="#263238"/><rect width="19.438" height="22.05" transform="translate(169.697 238.39) rotate(-89.27)" fill="#263238"/><rect width="19.439" height="22.05" transform="translate(194.272 195.863) rotate(-89.27)" fill="#263238"/><rect width="19.438" height="22.05" transform="translate(194.545 174.445) rotate(-89.27)" fill="#263238"/><rect width="19.439" height="21.424" transform="translate(122.811 194.952) rotate(-89.269)" fill="#263238"/><rect width="19.438" height="21.424" transform="translate(122.538 216.369) rotate(-89.269)" fill="#263238"/><rect width="19.439" height="21.424" transform="matrix(0.013, -1, 1, 0.013, 123.357, 152.117)" fill="#263238"/><rect width="19.438" height="21.424" transform="translate(122.265 237.786) rotate(-89.269)" fill="#263238"/><rect width="19.438" height="21.424" transform="translate(123.084 173.534) rotate(-89.269)" fill="#263238"/><rect width="17.937" height="22.05" transform="translate(195.091 131.61) rotate(-89.27)" fill="#263238"/><rect width="17.938" height="22.05" transform="translate(193.472 258.614) rotate(-89.27)" fill="#263238"/><rect width="17.938" height="21.423" transform="matrix(0.013, -1, 1, 0.013, 122.011, 257.703)" fill="#263238"/><rect width="17.938" height="21.424" transform="translate(123.63 130.699) rotate(-89.269)" fill="#263238"/><rect width="19.439" height="22.05" transform="translate(146.214 195.25) rotate(-89.27)" fill="#263238"/><rect width="19.438" height="22.05" transform="translate(145.941 216.667) rotate(-89.27)" fill="#263238"/><rect width="17.937" height="22.05" transform="translate(171.062 131.304) rotate(-89.27)" fill="#263238"/><rect width="17.938" height="22.05" transform="translate(169.443 258.308) rotate(-89.27)" fill="#263238"/><rect width="19.439" height="22.05" transform="translate(170.789 152.722) rotate(-89.27)" fill="#263238"/><rect width="19.438" height="22.05" transform="translate(170.516 174.138) rotate(-89.27)" fill="#263238"/><rect width="19.438" height="22.05" transform="translate(145.668 238.084) rotate(-89.27)" fill="#263238"/><rect width="17.938" height="22.051" transform="translate(145.413 258.001) rotate(-89.269)" fill="#263238"/><rect width="17.938" height="22.05" transform="translate(147.033 130.998) rotate(-89.27)" fill="#263238"/><rect width="19.439" height="22.05" transform="translate(170.243 195.556) rotate(-89.27)" fill="#263238"/><rect width="19.439" height="22.05" transform="translate(146.759 152.416) rotate(-89.27)" fill="#263238"/><rect width="19.438" height="22.05" transform="translate(146.486 173.832) rotate(-89.27)" fill="#263238"/><g clip-path="url(#a)"><g opacity="0.1"><g clip-path="url(#aw)"><path d="M185.03,111.558,121.2,165.885l.7-55.132Z" fill="#fff"/><path d="M213.066,111.915l-92.175,78.461.171-13.419,76.644-65.238Z" fill="#fff"/><path d="M219.58,124.792l-.086,6.721-98.931,84.2.086-6.722Z" fill="#fff"/></g></g><g opacity="0.1"><g clip-path="url(#ax)"><path d="M217.99,249.519l-.145,11.39-13.033-.166Z" fill="#fff"/><path d="M218.236,230.176l-.135,10.6-23.3,19.835-12.141-.154Z" fill="#fff"/><path d="M218.491,210.2l-.068,5.29-52.579,44.757-6.064-.078Z" fill="#fff"/></g></g><path d="M115.843,157.41s-12.074,5.344-15.976.556S117.323,127.9,117.323,127.9s.345-7.431,1.4-8.738a13.5,13.5,0,0,1,3.448-2.552l.793,14.612-2.216.2s-11.446,15.4-11.237,16.728,6.341-1.458,6.341-1.458Z" fill="#e4897b"/><path d="M143.834,195.79s10.007-21.33,9.255-26.375-17.558,16.831-17.558,16.831l-1.354,7.49Z" fill="#407bff"/><g opacity="0.4"><g clip-path="url(#ay)"><path d="M143.834,195.79s10.007-21.33,9.255-26.375-17.558,16.831-17.558,16.831l-1.354,7.49Z" fill="#fff"/></g></g><g opacity="0.2" style="isolation:isolate"><g clip-path="url(#az)"><path d="M143.145,195.225s10.007-21.33,9.255-26.375-17.558,16.831-17.558,16.831l-1.354,7.49Z"/></g></g><path d="M160.1,357.4l7.853.823.4-4.551,1.075-12.385-7.853-.833-1.191,13.683Z" fill="#e4897b"/><path d="M91.856,356.4h7.611l.377-1.716.048-.212,2.368-10.99.05-.222.914-4.213H95.6Z" fill="#e4897b"/><g opacity="0.2" style="isolation:isolate"><g clip-path="url(#ba)"><path d="M161.575,340.451l-1.191,13.682,7.969-.464,1.075-12.385Z"/></g></g><g opacity="0.2" style="isolation:isolate"><g clip-path="url(#bb)"><path d="M92.078,355.435h.01l7.794-.964h.01l2.309-10.6h-.01l-7.74.608-2.3,10.628Z"/></g></g><path d="M100.522,355.941H91.275a.669.669,0,0,0-.649.523l-1.5,6.778a1.124,1.124,0,0,0,.866,1.332,1.146,1.146,0,0,0,.248.024c2.992-.049,5.17-.233,8.927-.233,2.315,0,9.3.243,12.492.243s3.612-3.157,2.305-3.448c-5.869-1.278-10.284-3.05-12.163-4.735a1.839,1.839,0,0,0-1.278-.484" fill="#263238"/><path d="M168.789,355.7h-9.247a.668.668,0,0,0-.649.523l-1.5,6.778a1.123,1.123,0,0,0,.866,1.332,1.137,1.137,0,0,0,.247.024c2.992-.049,5.171-.233,8.928-.233,2.315,0,9.3.243,12.492.243s3.611-3.157,2.3-3.448c-5.868-1.278-10.283-3.05-12.162-4.735a1.841,1.841,0,0,0-1.278-.484" fill="#263238"/><path d="M170.145,350.589l-11.233.363c4.086-75.1,5.994-78.934-30.459-114.407-.852,10.729-1.811,21.862-2.75,31.138-.59,5.743-.765,10.758-1.724,14.432-6.486,24.875-22.1,68.9-22.1,68.9l-10.961.489s13.72-60.334,15.131-80c1.852-25.8-14.192-55.521,1.413-83.454l36.392,7.086-.264,8.947c34.732,50.821,41.086,61.8,26.556,146.5" fill="#407bff"/><g opacity="0.4"><g clip-path="url(#bc)"><path d="M170.145,350.589l-11.233.363c4.086-75.1,5.994-78.934-30.459-114.407-.852,10.729-1.811,21.862-2.75,31.138-.59,5.743-.765,10.758-1.724,14.432-6.486,24.875-22.1,68.9-22.1,68.9l-10.961.489s13.72-60.334,15.131-80c1.852-25.8-14.192-55.521,1.413-83.454l36.392,7.086-.264,8.947c34.732,50.821,41.086,61.8,26.556,146.5" fill="#fff"/></g></g><path d="M162.964,168.2s20.691,3.739,24.643,3.1S212.5,154.143,212.5,154.143s6.9-.38,7.263-2.717,1.3-6.524-.679-6.389-7.762,2.707-7.762,2.707l-.751,1.922s-23.049,13.907-23.907,14.215-20.723-5.122-20.723-5.122Z" fill="#e4897b"/><path d="M125.526,141.048c-6.8,0-12.644,4.385-18.865,7.514l4.475,11.155,14.287-.9Z" fill="#407bff"/><path d="M159.789,139.4a9.6,9.6,0,0,1-.692.74,9.636,9.636,0,0,1-6.481,2.706,8.583,8.583,0,0,1-8.49-5.978c-1.556-4.623.287-8.176,2.921-14.43a9.291,9.291,0,0,1,15.589-2.679c4.774,5.358,1.156,14.811-2.847,19.641" fill="#e4897b"/><g opacity="0.2" style="isolation:isolate"><g clip-path="url(#bd)"><path d="M154.067,142.707a9.572,9.572,0,0,1-1.451.143,8.637,8.637,0,0,1-6.808-2.971,10.129,10.129,0,0,1,2.1-1.533,13.379,13.379,0,0,1,6.16,4.361"/></g></g><path d="M166.1,122.989c-.355,0-3.138,2.366-3.313,3.248a11.635,11.635,0,0,1-5.517,6.8c-2.353,1.074-5.956,6.152-5.956,6.152s-3.918-3.29-8.029-3.362a22.643,22.643,0,0,1-.076-19.217Z" fill="#263238"/><g opacity="0.2"><g clip-path="url(#be)"><path d="M166.1,122.989c-.355,0-3.138,2.366-3.313,3.248a11.635,11.635,0,0,1-5.517,6.8c-2.353,1.074-5.956,6.152-5.956,6.152s-3.918-3.29-8.029-3.362a22.643,22.643,0,0,1-.076-19.217Z" fill="#fff"/></g></g><path d="M155.525,130.984a4.394,4.394,0,0,0,.7,3.7c.982,1.133,2.651-.214,3.368-2.131.625-1.7.9-4.4-.57-4.746s-3.128,1.334-3.5,3.182" fill="#e4897b"/><path d="M161.133,125.111s.725,16.154-11.706,16.292v.667s11.158,1,13.76-15.712Z" fill="#263238"/><path d="M141.692,121.02a5.231,5.231,0,0,0,3.081,2.654c2.4.89,13.827-2.079,13.827-2.079l2.054,1.531s-11.5,3.79-15.881,3.162-3.68-3.884-3.68-3.884Z" fill="#fff"/><path d="M135.531,142.852c1.662,4.192,13.9,5.3,13.9,5.3a12.6,12.6,0,0,1,.044-3.229,8.741,8.741,0,0,1,1.237-3.218,18.2,18.2,0,0,1,1.071-1.61l-8-4.239c-1.88,3.333-3.736,5.217-8.246,7" fill="#e4897b"/><path d="M168.562,127.759a1.992,1.992,0,0,1-.416,2.242c-1.027.893-3.239,0-3.239,0s-7.641-12.136-22.892-11.731c0,0-1.122-1.568-.893-2.637s2.429-1.786,2.429-1.786A21.54,21.54,0,0,1,155.408,108c7.194-.924,14.649,6.727,14.971,8.607s-1.423,4.2-1.423,4.2a16.933,16.933,0,0,1-.394,6.946" fill="#ff8100"/><g opacity="0.2" style="isolation:isolate"><g clip-path="url(#bf)"><path d="M168.562,127.759c-7.288-12.417-25.011-13.912-25.011-13.912a20.634,20.634,0,0,1,3.956-3.032c.145,1.547,1.91,2.17,3.343,2.315,1.972.2,10.143-2.055,14.057.717a9.59,9.59,0,0,1,4.049,6.966,16.933,16.933,0,0,1-.394,6.946"/></g></g><g opacity="0.2" style="isolation:isolate"><g clip-path="url(#bg)"><path d="M128.454,236.5c-.852,10.729-1.811,21.884-2.75,31.161-1.375-13.392-3.06-22.94-3.06-22.94s-1.578-1.3-5.917-8.221,0-19.851,0-19.851c-.135,12.008,11.727,19.851,11.727,19.851"/></g></g><path d="M171.4,349.379l-.545,3.147H157.663v-2.9Z" fill="#407bff"/><path d="M103.178,350.589l-1.266,2.9H89.9l.227-2.9Z" fill="#407bff"/><path d="M161.676,152.816c6.424,3.856,11.5,7.534,11.5,7.534l-4.632,9.865-18.491-3.232a60.528,60.528,0,0,1,4.834-9.152c3.214-5.055,6.785-5.015,6.785-5.015" fill="#407bff"/><g opacity="0.4"><g clip-path="url(#bh)"><path d="M171.4,349.379l-.545,3.147H157.663v-2.9Z" fill="#fff"/></g></g><g opacity="0.4"><g clip-path="url(#bi)"><path d="M103.178,350.589l-1.266,2.9H89.9l.227-2.9Z" fill="#fff"/></g></g><path d="M106.165,189.087l12.563,2.378-.769,3.135-13.165-2.627Z" fill="#263238"/><path d="M120.814,191.859l15.449,2.938-.281,3.385-15.853-3.156Z" fill="#263238"/><path d="M144.558,196.365l-.042,3.52-6.332-1.267.186-3.426Z" fill="#263238"/><path d="M107.461,188.054s8.089-38.283,16.353-46.58c0,0,21.018-3.8,37.862,11.342,0,0-14.293,24.529-17.823,42.325Z" fill="#407bff"/><path d="M118.679,192.041l2.02.455a.5.5,0,0,0,.586-.612l-.571-2.12a.5.5,0,0,0-.852-.2l-1.448,1.666A.5.5,0,0,0,118.679,192.041Z" fill="none" stroke="#fff" stroke-linecap="round" stroke-linejoin="round" stroke-width="0.5"/><path d="M131.435,155.227l1.892.84a.5.5,0,0,0,.7-.485l-.147-2.191a.494.494,0,0,0-.8-.358l-1.746,1.351A.5.5,0,0,0,131.435,155.227Z" fill="none" stroke="#fff" stroke-linecap="round" stroke-linejoin="round" stroke-width="0.5"/><path d="M131.618,154.74s-5.893,10.948-12.132,33.416l2.409.711s6.3-23.4,11.594-33.262Z" fill="#263238"/><line y1="1.412" x2="0.3" transform="translate(120.129 188.704)" fill="none" stroke="#fff" stroke-linecap="round" stroke-linejoin="round" stroke-width="0.5"/><line x2="2.535" y2="0.711" transform="translate(119.485 188.156)" fill="none" stroke="#fff" stroke-linecap="round" stroke-linejoin="round" stroke-width="0.5"/><path d="M133.489,153.519a45.51,45.51,0,0,1,17.856-8.078l2.722,1.438s-7.234,1.112-20.418,8.574Z" fill="#263238"/><path d="M131.618,154.52l1.492-1.035s.16-10.153,1.155-12.5l-1.683.065a61.312,61.312,0,0,0-.964,13.472" fill="#263238"/><path d="M209.159,149.8l2.858,5.757.791-.7s7.083-.314,7.529-1.149,2.169-9.155,1.016-9.611-10.076,2.622-10.408,2.708-.765,2.385-.765,2.385Z" fill="#407bff"/><path d="M116.257,127.9l4.146,4.878.616-.959,1.949-.6-.793-14.612s-3.825,2.284-4.031,2.552-1.164,8.594-1.164,8.594Z" fill="#407bff"/></g></g></svg>