<svg xmlns="http://www.w3.org/2000/svg" xmlns:xlink="http://www.w3.org/1999/xlink" x="0px" y="0px" viewBox="0 0 1787.6 1110" style="enable-background:new 0 0 1787.6 1110;" xml:space="preserve"> <style type="text/css"> .st0{fill:#D9E5FB;} .st1{fill:#EEC95C;} .st2{fill:#A9D59A;} .st3{fill:#FFFFFF;} .st4{clip-path:url(#SVGID_00000161603508650290074980000006304539572734689466_);} .st5{fill:#DEDEDE;} .st6{fill:#305366;} .st7{fill:#0E2B3C;} .st8{fill:#F2F2F2;} .st9{fill:#777A7C;} .st10{fill:#3B7EE5;} .st11{fill:#97999B;} .st12{opacity:0.2;fill:#FFFFFF;} .st13{opacity:0.2;fill:none;stroke:#FFFFFF;stroke-width:2;stroke-miterlimit:10;} .st14{fill:#EFB686;} .st15{fill:#86B4F7;} .st16{fill:#EB694E;} .st17{opacity:0.7;fill:#A67C52;} .st18{fill:#F5B4A7;} </style> <g id="_x31_"> <path class="st0" d="M1664.6,376.1c32,277.6-358.6,263.7-724.5,226.1c-365.9-37.5-693.7-101.9-656.6-246.3 c54.1-210.1,351.1-76.4,681.7-239.2C1359.5-77.4,1640.6,167.6,1664.6,376.1z"></path> <circle class="st1" cx="1537.9" cy="191.5" r="92.9"></circle> <circle class="st2" cx="1574.3" cy="424.1" r="126"></circle> <circle class="st2" cx="478.1" cy="312.9" r="112.7"></circle> <circle class="st2" cx="365.5" cy="416.7" r="107"></circle> <circle class="st2" cx="566.7" cy="375.3" r="107"></circle> <circle class="st2" cx="1451.3" cy="380.9" r="135.5"></circle> <path class="st3" d="M1062.8,215.7c-5.4-6.2-8.5-12.8-8.5-19.7c0-31.7,61.2-57.3,136.8-57.3c7.3,0,14.5,0.2,21.6,0.7 c19-20.2,62.3-34.3,112.7-34.3c51.7,0,95.9,14.8,114.1,35.9c56.9,6.9,98.4,29,98.4,55c0,6.9-3.1,13.6-8.5,19.7H1062.8z"></path> <g> <defs> <path id="SVGID_1_" d="M141.7,482.3c-209.1,187.8-247.6,636.3,525.1,621.1c766-15.1,1047.2-74.1,1104.5-402.7 c59.4-340.7-326-622.7-760.4-444.9C706,380.6,333.1,310.4,141.7,482.3z"></path> </defs> <clipPath id="SVGID_00000064346645868177994290000006289365153821798290_"> <use xlink:href="#SVGID_1_" style="overflow:visible;"></use> </clipPath> <g style="clip-path:url(#SVGID_00000064346645868177994290000006289365153821798290_);"> <polygon class="st5" points="-9.2,791.5 -9.2,1125.9 1793.3,1116.5 1793.3,782.1 "></polygon> <polygon class="st6" points="1254.3,302.3 -9.2,381 -9.2,824.7 1793.3,721 1793.3,451.2 "></polygon> <polygon class="st7" points="-26,546.9 1597.3,438 1594.7,397.2 -26,507.5 "></polygon> <polygon class="st7" points="-9.2,476.5 1372.5,385.1 1365.6,355.9 -9.2,448.1 "></polygon> <polygon class="st7" points="-20.9,598.9 -26,787.7 1244.4,723.8 1636.3,491.6 "></polygon> <polygon class="st7" points="1750.2,620.1 1320.8,646.3 1247.8,693.6 1752.6,662.9 "></polygon> <polygon class="st7" points="1758.6,524.2 1364.8,548.3 1292.1,593.5 1758.6,565.2 "></polygon> <polygon class="st8" points="1756.8,600 1327.3,626.2 1254.3,673.6 1759.1,642.9 "></polygon> <polygon class="st5" points="1758,623.5 1294.4,650.2 1276,661 1758.6,633.8 "></polygon> <polygon class="st9" points="1347.8,625 1347.8,667.9 1266.5,672.8 "></polygon> <polygon class="st8" points="1770.4,503.9 1371.3,528.2 1298.6,573.5 1770.4,544.8 "></polygon> <polygon class="st5" points="1770.4,525.1 1371.3,549.5 1298.6,563.7 1770.4,535.1 "></polygon> <polyline class="st9" points="1528.6,559.5 1451.1,564.2 1528.6,518.6 "></polyline> <polygon class="st8" points="-9.2,592 1486.6,483.1 1483.9,442.3 -9.2,543.3 "></polygon> <polygon class="st5" points="-9.2,592 1486.6,483.1 1485,457.9 -9.2,555.5 "></polygon> <polygon class="st9" points="1390.7,449.2 1390.7,470.4 1348.9,473.4 "></polygon> <polygon class="st8" points="-9.2,521.7 1614.2,412.8 1611.5,372 -9.2,482.4 "></polygon> <polygon class="st5" points="-9.2,513.2 1613.6,404.5 1613,396.7 -9.2,506.7 "></polygon> <polygon class="st9" points="1511.5,379.4 1511.5,420.3 1430.7,426.1 "></polygon> <polygon class="st8" points="-9.2,455.5 1372.5,364.1 1365.6,334.9 -9.2,427.1 "></polygon> <polygon class="st3" points="1137.6,279.4 1597.3,305.6 1289.5,479.9 794.9,456.5 "></polygon> <polygon class="st10" points="1139.8,287.2 1577,312 1287.7,472.5 818.9,451.7 "></polygon> <polygon class="st5" points="794.9,456.5 795.6,481 1125.9,495.1 1289.5,479.9 "></polygon> <polygon class="st11" points="1597.3,305.6 1597.3,329.8 1337.6,479.9 1289.5,479.9 "></polygon> <polygon class="st7" points="-9.2,823.5 -9.2,870.4 1793.3,776.6 1793.3,721 "></polygon> <polygon class="st9" points="-9.2,870.4 -9.2,921.8 1793.3,826.4 1793.3,776.6 "></polygon> <polygon class="st11" points="-9.2,921.8 -9.2,970.8 1793.3,909.7 1793.3,826.4 "></polygon> <polygon class="st12" points="1416.7,299.2 822,453.6 892.8,457.9 1470.3,302.3 "></polygon> <polyline class="st12" points="1492.9,305.6 913.9,459.1 960.8,461.7 1546.2,308.2 "></polyline> <line class="st13" x1="1476.4" y1="305.6" x2="1174.4" y2="467.8"></line> <line class="st13" x1="924.8" y1="457.1" x2="1237" y2="290"></line> <line class="st13" x1="1040" y1="463.2" x2="1352.2" y2="296.1"></line> <line class="st13" x1="1527.1" y1="341.8" x2="1078.7" y2="314.5"></line> <line class="st13" x1="1470.3" y1="372" x2="1012.3" y2="348.2"></line> <line class="st13" x1="1413.4" y1="405.8" x2="950.2" y2="381.8"></line> <line class="st13" x1="1351.7" y1="439.7" x2="878.5" y2="417.1"></line> <g> <polygon class="st8" points="1755.4,921.7 959.3,948.8 946.3,959.8 1755.4,1113.3 "></polygon> <polygon class="st8" points="-9.2,982.5 -9.2,1122.8 609,1113.3 609,960.7 "></polygon> <polygon class="st3" points="1742.4,1114 1742.4,932.7 946.3,959.8 946.3,1114 "></polygon> <polygon class="st5" points="1325,1114 1325,1000.9 1000.3,1012 1000.3,1114 "></polygon> <polygon class="st5" points="1698.4,1114 1698.4,988.3 1388,998.8 1388,1114 "></polygon> <polygon class="st3" points="-9.2,993 -9.2,1123.5 596,1114 596,971.7 "></polygon> <polygon class="st5" points="552,1114 552,1027.2 277.5,1036.5 276.3,1114 "></polygon> <polygon class="st10" points="1325,1114 1325,1011.3 1010.3,1022 1010.3,1114 "></polygon> <polygon class="st10" points="1698.4,1114 1698.4,998.6 1398,1008.8 1398,1114 "></polygon> <polygon class="st10" points="552,1114 552,1037.5 287.5,1046.5 286.6,1114 "></polygon> <polygon class="st12" points="480.9,1114 552,1037.5 521.1,1038.6 451.1,1114 "></polygon> <polygon class="st12" points="417.7,1114 481,1039.8 437.6,1041.4 374.1,1114 "></polygon> <polygon class="st12" points="1212.6,1114 1297.3,1012.1 1267.3,1013.2 1182.2,1114 "></polygon> <polygon class="st12" points="1150.7,1114 1235.1,1014.2 1196,1015.7 1108.9,1114 "></polygon> <polygon class="st12" points="1586.3,1114 1673.3,999.8 1640.4,1000.6 1549,1114 "></polygon> <polygon class="st12" points="1528.6,1114 1615,1001.2 1575.9,1002.8 1481.8,1114 "></polygon> </g> </g> <g style="clip-path:url(#SVGID_00000064346645868177994290000006289365153821798290_);"> <polygon class="st3" points="4.4,564.5 4.4,720.3 1247.5,653 1583.1,456.5 "></polygon> <polygon class="st5" points="4.4,751.1 1251.2,681.8 1247.5,653 4.4,720.3 "></polygon> <polygon class="st11" points="1583.1,456.5 1585.9,484.9 1251.2,681.8 1247.5,653 "></polygon> <polygon class="st10" points="1063.1,499.7 704.2,678.4 1242.7,648.1 1560.3,463.5 "></polygon> <g> <polygon class="st10" points="60.4,572.7 -262.3,729.3 136,708.8 533.6,538.3 "></polygon> <polygon class="st10" points="569.9,535.6 180.7,706.8 668,680.4 1031.3,502 "></polygon> </g> <polygon class="st12" points="1562.5,461.4 892.7,669.4 811.3,674.8 1476.4,466.6 "></polygon> <polygon class="st12" points="1441.3,469.4 771.5,677.4 712.4,681 1377.5,472.8 "></polygon> <polygon class="st12" points="986.4,503.4 413.4,695.6 334.5,700.7 902.7,508.2 "></polygon> <polygon class="st12" points="806.7,514.1 244.3,704.6 244.3,706.2 295.9,703.1 869,510.9 "></polygon> <polygon class="st12" points="-64.5,718.9 476.5,541.3 388.5,543.8 -64.5,696.2 "></polygon> <polygon class="st12" points="-64.5,687.1 352.9,545.5 287.3,547 -64.5,669.6 "></polygon> <path class="st13" d="M1506.7,496.4C1088.3,527,404.7,574.1-13.1,604.2"></path> <path class="st13" d="M-13.1,631.9c397.8-26.9,1059.5-72.9,1457.6-99.3"></path> <path class="st13" d="M1381.2,570.9C1004.3,595,363.7,639.1-13.2,663.3"></path> <path class="st13" d="M-113.3,697.4c353.9-21.9,1073.6-65.4,1427.8-88.2"></path> <line class="st13" x1="1311.1" y1="479.5" x2="975.8" y2="664.6"></line> <line class="st13" x1="1114.4" y1="656.5" x2="1451.7" y2="469.5"></line> <line class="st13" x1="1180.2" y1="489.1" x2="827.6" y2="673.7"></line> <line class="st13" x1="781" y1="516.9" x2="441.9" y2="694.1"></line> <line class="st13" x1="565.8" y1="686.3" x2="907.1" y2="507.3"></line> <line class="st13" x1="663.5" y1="526.1" x2="309.3" y2="702.8"></line> <path class="st13" d="M286.7,552.3c-11.4,5.7-320.6,129-332.3,134"></path> <path class="st13" d="M212.8,555.4c-11.4,5.7-320.6,129-332.3,134"></path> <path class="st13" d="M29.3,717.7C36,714.7,375.3,562,412.9,544"></path> <polygon class="st11" points="1060.2,494.2 678.7,684.6 678.7,714.7 670.1,714.7 670.1,685.1 1054.1,494.6 "></polygon> <polygon class="st11" points="166.9,707.4 573.3,529.3 564.1,529.9 150.6,708.8 "></polygon> </g> </g> </g> <g id="_x32_"> <polygon class="st7" points="745.7,228.2 699.9,292 708.1,298.6 754.1,233.5 "></polygon> <polygon class="st10" points="745.7,228.2 699.9,292 744.4,237.4 754.1,233.5 "></polygon> <circle class="st10" cx="752.3" cy="227.3" r="8.8"></circle> <circle class="st7" cx="753.6" cy="228.6" r="7.5"></circle> <polygon class="st7" points="793.5,154.9 749.8,209.7 756,228.2 764.7,228.2 787.9,204 "></polygon> <polygon class="st10" points="793.5,154.9 749.8,209.7 756,228.2 766,212.5 758.3,219.7 754.1,210.2 "></polygon> <polygon class="st14" points="1029.5,239.8 1036.8,251.1 1054.3,295.6 1039,303.1 985.7,245.7 993.1,223.8 "></polygon> <path class="st10" d="M867.9,116.8l-42.9,6.9l-31.5,31.2L781.2,186l6.7,18l7,11.8l14.9,24l8.7,12.5l6,13.2l6.3,13.8l7.2,4l7.2,12.3 l14.4,4.1l-5.8,4.5l1,4.1l-25,26.5l-13,30.7l2.1,9.6l-16.1,24.1l0.3,8.1l-14.1,19.2l-7.9,6.6l4.8,7.5l-3.1,9.7l3.1,1.6l18-6.2 l15-1.7l43.2-22.4l9-28.1l38.4-43.4l3.4-8.9l12.7-11.7l2.8-16.5l33.3,17l15.6,5.7l-8.7,2.4l0.3,5.7l-6,6.9l-3.9,21l71.2-36.9 l8.9-31.8c0,0-46.8-55.5-60.5-65.5c-13.7-9.9-60.9-68.7-60.9-68.7L867.9,116.8z"></path> <path class="st15" d="M878.9,184.2l-15.7-26.6l-27.3-19.9l22.6,19.9c0,0-23.9-1.7-22.6-1.4c1.3,0.3,22.9,4.8,22.9,4.8l5.4,12.5"></path> <polyline class="st15" points="787.9,204 781.2,186 793.5,154.9 825.1,123.7 867.9,116.8 825.9,127.9 813.3,150.3 818.9,133.6 796.3,156.7 784.5,185.8 "></polyline> <polygon class="st15" points="829.9,334.9 854.9,308.4 853.9,304.3 859.7,299.8 845.3,295.7 838.1,283.4 830.9,279.4 824.5,265.6 833.6,277.3 861.7,279.4 843.1,284.4 847.5,293.8 872.5,299.2 891,295.2 872.5,303.1 860.1,303.1 866.8,311.2 882.7,312.9 862.7,315.4 855.7,312.4 832.3,338.2 820.5,366.3 840.3,378.5 822,371.6 820.5,379.6 806.5,393.8 818.9,375.3 816.8,365.7 "></polygon> <polygon class="st16" points="1098.5,98.1 1093,94.9 1085.6,94.8 1078.2,90.4 1071.1,90.4 1065.8,86.2 1001,73.6 916.9,85.2 900,85.9 886.9,91.9 874.3,127.1 896.4,170.1 924.4,194.5 946.3,192.2 938,205.3 938.8,213.5 934.4,221 977.9,254.2 988.7,242.6 995.9,230.2 1017.6,238.7 1035.2,240.3 1037,229.7 1042.7,226.1 1043.7,207.4 1065.8,198.4 1069.9,192.4 1081.5,193.5 1102.6,168.9 "></polygon> <path class="st14" d="M939.7,225l-20,40.5c0,0,9.8,20.9,10,21.6c0.3,0.7,1.8,15.1,1.8,15.1l-3.2,10.9l-2.8,16.5 c0,0,0.9,19.9,1.2,19.2c0.3-0.7,12.2-5.6,12.2-5.6l15.3,0.9l4.5-33.4c0,0,6.3-39.9,6.2-50.1c6.2-4.5,11-8.2,11-8.2L939.7,225z"></path> <path class="st16" d="M938.9,343.3l-12.2,5.6l-1.7,21.8l-3,9.2l-11.9,13.1l-3,4.2l6.9,2.8l11.5-9.7c0,0,11.6-6.7,14.1-8.3 l19.2-10.1l-4.7-12.6v-14.9L938.9,343.3z"></path> <path class="st16" d="M1054.3,295.6l-15.3,7.5l-4.2,15l5.8,11.4l45.7-22.9c0,0,14,2.4,16.3-10.2c-6-0.5-9.1-0.3-13.2-1.2 c-6.3,3.3-14.6,5-14.6,5l-9.6-1.1L1054.3,295.6z"></path> <polygon class="st7" points="1105.4,161.8 1093.6,179.3 1062.7,193.7 1015.9,204.3 1026,194.5 1039,177.5 1048.9,154.9 1048.9,130.7 1039,110.9 1008,89.1 984.6,83.1 903.6,90.4 896.4,106.3 891.7,132.8 899.5,154.9 922.3,186 946.3,192.2 906.9,203.5 900.2,197.6 886.6,205.8 883.8,197.3 874.3,187 840.6,187 814.1,209.9 809.8,239.8 796.6,219.9 794.9,215.8 794.9,197.6 810.7,176 842.1,162.4 868.1,166.8 878.9,184.2 887.4,181.1 864.7,135.6 853.7,119.7 830.1,122.8 859.1,101.7 878,90.6 908.5,83.1 996.5,74.5 1012.3,78.8 1048.9,100.3 1062.7,122 1060.4,152.6 1046,178.8 1030.9,190.7 1026,198.6 1054.3,189.1 1087.7,173.7 1097.7,155.5 1091,108.5 1078.2,90.4 1085.6,94.8 1088.6,94.9 1104.2,110.6 "></polygon> <polygon class="st14" points="1125.7,73.6 1109.5,84.4 1095.4,100.9 1084.9,109.9 1076.9,148.2 1078.4,158 1091.5,158 1092.3,166.7 1102.6,173.7 1130.1,171.6 1142.6,168.9 1159.4,155.7 1166.9,154.6 1175.4,147.4 "></polygon> <polyline class="st7" points="1137.3,100.1 1113.4,110.9 1113.4,105.5 1126.7,87.9 1122.7,80.7 1117,81.1 1109.3,87.8 1102.3,99.9 1106.6,103.9 1097.3,107.5 1094.8,101.4 1108.5,82.4 1127,69.8 "></polyline> <polygon class="st3" points="1115.1,144.2 1117.2,154 1123.7,162.9 1128.8,166.8 1117.8,164.8 1113.9,160.5 1112.7,150.2 "></polygon> <polygon class="st7" points="1131.9,123.7 1137.3,130.5 1143.1,137.7 1140.2,137 1138.1,135.4 1135.9,135.4 1133.3,132.4 1134.2,129.4 1132.2,126.4 "></polygon> <polygon class="st17" points="1091.5,158 1091.9,140.4 1092.6,134.1 1076.9,148.2 1078.4,158 "></polygon> <polygon class="st17" points="1125.6,158.8 1126.9,153.8 1127.5,147.7 1128.8,146.9 1128.8,153.7 1130.6,156.1 1131.9,159.5 1138.5,159.5 1146.3,149.5 1150.1,142.6 1140.8,130.7 1128.8,104 1140.1,95.5 1174.4,148.8 1166.9,154.6 1159.4,155.7 1142.6,168.9 1130.1,171.6 1102.6,173.7 1110.3,168.9 1111,164.4 1116.7,168.9 1128.8,166.8 1123.7,162.9 1117.2,154 1115.1,144.2 1120.8,154 "></polygon> <path class="st10" d="M1128.1,55.7l-14.7-7.5l7.4,28.8l33.4,58.7l21.2,26.1l16.2,7.2v-16.8l8.7-6.5l-1.2-1.9 c0,0,18.5-15.3,18.7-35.1c0,0,3.1-8.2,3.1-14.4c0,0-7.7-21.3-15.9-32.7l-6.5-0.7c0,0-17.7-21.9-58.8-3.1l-3.3-4.3L1128.1,55.7z"></path> <path class="st15" d="M1204.9,61.4l-6.5-0.7c0,0-17.7-21.9-58.8-3.1l-3.3-4.3l-8.2,2.4l-14.7-7.5l7.4,28.8l33.4,58.7 c0,0-2.2-13.7,0.3-24.1l7.7-5.2l8.7,12.5l19.2-13.9c0,0,8.7-7,9.2-33.9c14.3,12,5.3,35.5,5.3,35.5 C1216.9,92.8,1208.6,66.5,1204.9,61.4z M1137.8,62.2l-5,3.6c0,0,0,5.9,4.7,19.4c-8.9-14.7-8.9-22.8-8.9-22.8l8.1-4.9L1137.8,62.2z"></path> <polygon class="st7" points="1158,154.4 1151.1,146.9 1151.1,148.9 1152.3,150.5 1151.9,152.3 1154.3,154.7 1156.1,154.5 1157.1,154.9 "></polygon> <path class="st17" d="M1111.4,100.3c0.1-0.4,4.8-7.3,4.8-7.3l6.7-1.5l0.6-7l-1.6-1.4l-8.3,2.8l7.3,0.4l-1.1,4.5l-6.9,1.3l-3.2,5.6 L1111.4,100.3z"></path> <polygon class="st7" points="391.5,462.1 365.5,478.1 368.4,504.4 395,502.5 392.1,478.1 409.3,460.1 "></polygon> <polygon class="st7" points="716.4,438.1 717.2,453.6 721.5,482.3 743.8,480.7 738.8,452.1 736.6,436.6 "></polygon> <polygon class="st10" points="716.4,438.1 717.2,453.6 720.7,477.7 722.9,452.1 728.6,445.6 725.8,437.4 "></polygon> <polyline class="st10" points="673.7,324.4 387.2,471.4 392.1,478.1 678.1,330.5 "></polyline> <polyline class="st10" points="681.4,332.1 719.8,448.3 728.6,445.6 690.3,332.1 "></polyline> <path class="st7" d="M692.7,312.9l-24.1,8.9c0,0,1.7,11.1,25.8,16.5L692.7,312.9z"></path> <path class="st10" d="M692.7,312.9l-24.1,8.9c0,0,0.3,2,2.5,4.7L692.7,312.9z"></path> <ellipse transform="matrix(0.5 -0.866 0.866 0.5 75.3793 756.2902)" class="st7" cx="692.7" cy="312.9" rx="6.5" ry="3.9"></ellipse> <ellipse transform="matrix(0.5 -0.866 0.866 0.5 96.4843 757.4697)" class="st10" cx="704.2" cy="295.2" rx="19.2" ry="11.5"></ellipse> <ellipse transform="matrix(0.5 -0.866 0.866 0.5 94.4621 758.6796)" class="st7" cx="704.3" cy="297.5" rx="17.2" ry="10.3"></ellipse> <path class="st10" d="M387.2,471.4l-13.6,4.9l21.1-12.4l9.8-3.3l-12.9,1.4l-26.1,16.1c0,0,3,26.4,2.9,25.2s6.3-21.6,6.3-21.6 l20.1-9.6"></path> <polygon class="st18" points="1033.2,149 1024.3,134.1 1002.7,126.4 980.7,126.4 963.9,153.4 947.7,195.6 941.3,205.8 954.3,218.5 941.3,210 942.2,214.2 938.4,220.8 954.6,236.4 934.4,221 938.8,213.5 938,205.3 946.3,192.2 951.6,170.1 959.3,151.2 944,134.6 939.2,122.2 948.5,135.3 960.8,147.8 959.6,132.4 963.2,144.5 975.7,120.7 991.2,110.6 975.7,125.8 982.4,122.9 1003.2,123.4 1025.1,131.8 "></polygon> <polygon class="st18" points="1037,163.9 1029.7,189.6 1015.9,204.3 1002.8,219.7 995.9,230.2 988.7,242.6 977.9,254.2 965.3,244.5 977.5,249 989.5,235.5 977.8,225 991.1,231.5 997.3,218.5 1015.2,200.5 1020,182.9 1017.6,199.4 1028,187.8 "></polygon> <polygon class="st18" points="1084.9,109.9 1076.9,148.2 1078.4,158 1091.5,158 1092.3,166.7 1080.5,175.7 1089.4,163.9 1089.7,161 1076.9,161.8 1073.5,146.9 "></polygon> <polygon class="st18" points="1080.3,106.8 1072.3,141.4 1070.8,156.5 1073.1,171.4 1076.9,173.5 1070.2,174.2 1067.9,156.4 1069.5,140.4 "></polygon> <polygon class="st7" points="818.9,444.1 803.9,445.9 786,452.1 779.1,475.8 781,494.2 844.2,489.6 842.3,483.2 796.6,481 794.9,455.2 "></polygon> <polygon class="st16" points="876.8,98.6 873.2,119.4 863.2,110.6 868.6,102.2 "></polygon> <polygon class="st15" points="850.6,237.6 880.3,228.2 896.4,231.5 926.8,288.5 928.1,306.4 925.5,329.7 931.5,302.3 929.7,287.2 919.7,265.6 905.5,233.5 888,204.9 883.8,197.3 874.3,187 854,187 868.1,188.9 879.9,196.1 883.3,206.4 892.3,221.1 872,218.8 895.5,225 880.6,225 "></polygon> <g> </g> <g> </g> <g> </g> <g> </g> <g> </g> <g> </g> <g> </g> <g> </g> <g> </g> <g> </g> <g> </g> <g> </g> <g> </g> <g> </g> <g> </g> </g> </svg>