<svg id="visual" viewBox="0 0 900 675" width="900" height="675" xmlns="http://www.w3.org/2000/svg" xmlns:xlink="http://www.w3.org/1999/xlink" version="1.1"><rect x="0" y="0" width="900" height="675" fill="#FFFFFF"></rect><defs><linearGradient id="grad1_0" x1="25%" y1="0%" x2="100%" y2="100%"><stop offset="23.333333333333336%" stop-color="#5f98ee" stop-opacity="1"></stop><stop offset="76.66666666666666%" stop-color="#5f98ee" stop-opacity="1"></stop></linearGradient></defs><defs><linearGradient id="grad1_1" x1="25%" y1="0%" x2="100%" y2="100%"><stop offset="23.333333333333336%" stop-color="#5f98ee" stop-opacity="1"></stop><stop offset="76.66666666666666%" stop-color="#b7caf7" stop-opacity="1"></stop></linearGradient></defs><defs><linearGradient id="grad1_2" x1="25%" y1="0%" x2="100%" y2="100%"><stop offset="23.333333333333336%" stop-color="#ffffff" stop-opacity="1"></stop><stop offset="76.66666666666666%" stop-color="#b7caf7" stop-opacity="1"></stop></linearGradient></defs><defs><linearGradient id="grad2_0" x1="0%" y1="0%" x2="75%" y2="100%"><stop offset="23.333333333333336%" stop-color="#5f98ee" stop-opacity="1"></stop><stop offset="76.66666666666666%" stop-color="#5f98ee" stop-opacity="1"></stop></linearGradient></defs><defs><linearGradient id="grad2_1" x1="0%" y1="0%" x2="75%" y2="100%"><stop offset="23.333333333333336%" stop-color="#b7caf7" stop-opacity="1"></stop><stop offset="76.66666666666666%" stop-color="#5f98ee" stop-opacity="1"></stop></linearGradient></defs><defs><linearGradient id="grad2_2" x1="0%" y1="0%" x2="75%" y2="100%"><stop offset="23.333333333333336%" stop-color="#b7caf7" stop-opacity="1"></stop><stop offset="76.66666666666666%" stop-color="#ffffff" stop-opacity="1"></stop></linearGradient></defs><g transform="translate(900, 0)"><path d="M0 365.6C-40.1 342.3 -80.1 318.9 -126.3 304.9C-172.5 290.8 -224.7 286.1 -258.5 258.5C-292.3 230.9 -307.7 180.5 -322.4 133.6C-337.2 86.7 -351.4 43.3 -365.6 0L0 0Z" fill="#dce4fb"></path><path d="M0 243.8C-26.7 228.2 -53.4 212.6 -84.2 203.3C-115 193.9 -149.8 190.8 -172.4 172.4C-194.9 154 -205.1 120.3 -215 89C-224.8 57.8 -234.3 28.9 -243.7 0L0 0Z" fill="#8fb0f3"></path><path d="M0 121.9C-13.4 114.1 -26.7 106.3 -42.1 101.6C-57.5 96.9 -74.9 95.4 -86.2 86.2C-97.4 77 -102.6 60.2 -107.5 44.5C-112.4 28.9 -117.1 14.4 -121.9 0L0 0Z" fill="#5f98ee"></path></g><g transform="translate(0, 675)"><path d="M0 -365.6C52.4 -365.2 104.8 -364.7 139.9 -337.8C175.1 -310.9 193 -257.6 220.6 -220.6C248.2 -183.6 285.6 -163 311.3 -129C337.1 -94.9 351.4 -47.5 365.6 0L0 0Z" fill="#dce4fb"></path><path d="M0 -243.7C34.9 -243.4 69.8 -243.1 93.3 -225.2C116.7 -207.3 128.7 -171.7 147.1 -147.1C165.5 -122.4 190.4 -108.7 207.6 -86C224.8 -63.3 234.3 -31.6 243.8 0L0 0Z" fill="#8fb0f3"></path><path d="M0 -121.9C17.5 -121.7 34.9 -121.6 46.6 -112.6C58.4 -103.6 64.3 -85.9 73.5 -73.5C82.7 -61.2 95.2 -54.3 103.8 -43C112.4 -31.6 117.1 -15.8 121.9 0L0 0Z" fill="#5f98ee"></path></g></svg>