<svg id="visual" viewBox="0 0 900 600" width="900" height="600" xmlns="http://www.w3.org/2000/svg" xmlns:xlink="http://www.w3.org/1999/xlink" version="1.1"><rect x="0" y="0" width="900" height="600" fill="#FFFFFF"></rect><defs><linearGradient id="grad1_0" x1="33.3%" y1="100%" x2="100%" y2="0%"><stop offset="20%" stop-color="#083b88" stop-opacity="1"></stop><stop offset="80%" stop-color="#083b88" stop-opacity="1"></stop></linearGradient></defs><defs><linearGradient id="grad1_1" x1="33.3%" y1="100%" x2="100%" y2="0%"><stop offset="20%" stop-color="#083b88" stop-opacity="1"></stop><stop offset="80%" stop-color="#46579c" stop-opacity="1"></stop></linearGradient></defs><defs><linearGradient id="grad1_2" x1="33.3%" y1="100%" x2="100%" y2="0%"><stop offset="20%" stop-color="#6d76af" stop-opacity="1"></stop><stop offset="80%" stop-color="#46579c" stop-opacity="1"></stop></linearGradient></defs><defs><linearGradient id="grad1_3" x1="33.3%" y1="100%" x2="100%" y2="0%"><stop offset="20%" stop-color="#6d76af" stop-opacity="1"></stop><stop offset="80%" stop-color="#9296c3" stop-opacity="1"></stop></linearGradient></defs><defs><linearGradient id="grad1_4" x1="33.3%" y1="100%" x2="100%" y2="0%"><stop offset="20%" stop-color="#b6b8d7" stop-opacity="1"></stop><stop offset="80%" stop-color="#9296c3" stop-opacity="1"></stop></linearGradient></defs><defs><linearGradient id="grad1_5" x1="33.3%" y1="100%" x2="100%" y2="0%"><stop offset="20%" stop-color="#b6b8d7" stop-opacity="1"></stop><stop offset="80%" stop-color="#dadbeb" stop-opacity="1"></stop></linearGradient></defs><defs><linearGradient id="grad1_6" x1="33.3%" y1="100%" x2="100%" y2="0%"><stop offset="20%" stop-color="#ffffff" stop-opacity="1"></stop><stop offset="80%" stop-color="#dadbeb" stop-opacity="1"></stop></linearGradient></defs><defs><linearGradient id="grad2_0" x1="0%" y1="100%" x2="66.7%" y2="0%"><stop offset="20%" stop-color="#083b88" stop-opacity="1"></stop><stop offset="80%" stop-color="#083b88" stop-opacity="1"></stop></linearGradient></defs><defs><linearGradient id="grad2_1" x1="0%" y1="100%" x2="66.7%" y2="0%"><stop offset="20%" stop-color="#46579c" stop-opacity="1"></stop><stop offset="80%" stop-color="#083b88" stop-opacity="1"></stop></linearGradient></defs><defs><linearGradient id="grad2_2" x1="0%" y1="100%" x2="66.7%" y2="0%"><stop offset="20%" stop-color="#46579c" stop-opacity="1"></stop><stop offset="80%" stop-color="#6d76af" stop-opacity="1"></stop></linearGradient></defs><defs><linearGradient id="grad2_3" x1="0%" y1="100%" x2="66.7%" y2="0%"><stop offset="20%" stop-color="#9296c3" stop-opacity="1"></stop><stop offset="80%" stop-color="#6d76af" stop-opacity="1"></stop></linearGradient></defs><defs><linearGradient id="grad2_4" x1="0%" y1="100%" x2="66.7%" y2="0%"><stop offset="20%" stop-color="#9296c3" stop-opacity="1"></stop><stop offset="80%" stop-color="#b6b8d7" stop-opacity="1"></stop></linearGradient></defs><defs><linearGradient id="grad2_5" x1="0%" y1="100%" x2="66.7%" y2="0%"><stop offset="20%" stop-color="#dadbeb" stop-opacity="1"></stop><stop offset="80%" stop-color="#b6b8d7" stop-opacity="1"></stop></linearGradient></defs><defs><linearGradient id="grad2_6" x1="0%" y1="100%" x2="66.7%" y2="0%"><stop offset="20%" stop-color="#dadbeb" stop-opacity="1"></stop><stop offset="80%" stop-color="#ffffff" stop-opacity="1"></stop></linearGradient></defs><g transform="translate(900, 600)"><path d="M-324.5 0C-317.9 -60 -311.3 -120.1 -281 -162.2C-250.7 -204.4 -196.8 -228.8 -146 -252.9C-95.2 -276.9 -47.6 -300.7 0 -324.5L0 0Z" fill="#ededf5"></path><path d="M-278.1 0C-272.5 -51.5 -266.8 -102.9 -240.9 -139.1C-214.9 -175.2 -168.7 -196.1 -125.1 -216.8C-81.6 -237.4 -40.8 -257.8 0 -278.1L0 0Z" fill="#c8c9e1"></path><path d="M-231.8 0C-227.1 -42.9 -222.4 -85.8 -200.7 -115.9C-179.1 -146 -140.6 -163.4 -104.3 -180.6C-68 -197.8 -34 -214.8 0 -231.8L0 0Z" fill="#a4a7cd"></path><path d="M-185.4 0C-181.7 -34.3 -177.9 -68.6 -160.6 -92.7C-143.3 -116.8 -112.4 -130.7 -83.4 -144.5C-54.4 -158.3 -27.2 -171.8 0 -185.4L0 0Z" fill="#8086b9"></path><path d="M-139.1 0C-136.2 -25.7 -133.4 -51.5 -120.4 -69.5C-107.5 -87.6 -84.3 -98.1 -62.6 -108.4C-40.8 -118.7 -20.4 -128.9 0 -139.1L0 0Z" fill="#5a67a5"></path><path d="M-92.7 0C-90.8 -17.2 -88.9 -34.3 -80.3 -46.4C-71.6 -58.4 -56.2 -65.4 -41.7 -72.3C-27.2 -79.1 -13.6 -85.9 0 -92.7L0 0Z" fill="#2e4992"></path><path d="M-46.4 0C-45.4 -8.6 -44.5 -17.2 -40.1 -23.2C-35.8 -29.2 -28.1 -32.7 -20.9 -36.1C-13.6 -39.6 -6.8 -43 0 -46.4L0 0Z" fill="#083b88"></path></g><g transform="translate(0, 0)"><path d="M324.5 0C301.6 48.1 278.8 96.3 254.6 147C230.4 197.7 204.9 251 162.2 281C119.6 311 59.8 317.8 0 324.5L0 0Z" fill="#ededf5"></path><path d="M278.1 0C258.6 41.3 239 82.5 218.2 126C197.5 169.5 175.6 215.2 139.1 240.9C102.5 266.6 51.3 272.4 0 278.1L0 0Z" fill="#c8c9e1"></path><path d="M231.8 0C215.5 34.4 199.1 68.8 181.9 105C164.6 141.2 146.4 179.3 115.9 200.7C85.4 222.2 42.7 227 0 231.8L0 0Z" fill="#a4a7cd"></path><path d="M185.4 0C172.4 27.5 159.3 55 145.5 84C131.7 113 117.1 143.4 92.7 160.6C68.3 177.7 34.2 181.6 0 185.4L0 0Z" fill="#8086b9"></path><path d="M139.1 0C129.3 20.6 119.5 41.3 109.1 63C98.8 84.7 87.8 107.6 69.5 120.4C51.3 133.3 25.6 136.2 0 139.1L0 0Z" fill="#5a67a5"></path><path d="M92.7 0C86.2 13.8 79.7 27.5 72.7 42C65.8 56.5 58.5 71.7 46.4 80.3C34.2 88.9 17.1 90.8 0 92.7L0 0Z" fill="#2e4992"></path><path d="M46.4 0C43.1 6.9 39.8 13.8 36.4 21C32.9 28.2 29.3 35.9 23.2 40.1C17.1 44.4 8.5 45.4 0 46.4L0 0Z" fill="#083b88"></path></g></svg>